<svg xmlns="http://www.w3.org/2000/svg" xmlns:xlink="http://www.w3.org/1999/xlink" width="179" height="180" viewBox="0 0 179 180">
    <defs>
        <path id="a" d="M0 179.354h178.41V0H0z"/>
    </defs>
    <g fill="none" fill-rule="evenodd">
        <path fill="#4AC8D9" d="M148.758 115.207c0 12.178-9.871 22.05-22.048 22.05-12.178 0-22.05-9.872-22.05-22.05 0-12.177 9.872-22.048 22.05-22.048 12.177 0 22.048 9.87 22.048 22.048z"/>
        <path fill="#DBF4F7" d="M141.584 115.207c0 7.83-6.346 14.177-14.174 14.177-7.828 0-14.175-6.347-14.175-14.176 0-7.826 6.347-14.174 14.175-14.174s14.174 6.347 14.174 14.173"/>
        <mask id="b" fill="#fff">
            <use xlink:href="#a"/>
        </mask>
        <path fill="#DBF4F7" d="M25.389 84.965h37.936V47.03H25.389zM68.065 84.965h42.679V47.03H68.065zM115.485 84.965h37.935V47.03h-37.935zM34.873 99.19v37.936h52.161V99.19z" mask="url(#b)"/>
        <path fill="#3896A3" d="M153.3 118.159c.07-.783.12-1.571.12-2.373 0-14.38-11.7-26.08-26.08-26.08-14.38 0-26.08 11.7-26.08 26.08 0 .802.05 1.59.12 2.373h-4.862V89.706h-71.13v28.453h-4.74V42.286h137.514v75.873H153.3zm-25.96 18.967c-11.768 0-21.34-9.572-21.34-21.34 0-11.767 9.572-21.337 21.34-21.337s21.34 9.57 21.34 21.337c0 11.768-9.572 21.34-21.34 21.34zm4.742 18.969a4.747 4.747 0 0 1-4.742 4.74 4.746 4.746 0 0 1-4.741-4.74v-14.68c1.54.284 3.12.452 4.74.452 1.622 0 3.202-.168 4.743-.452v14.68zm-101.951 4.74h61.645V94.449H30.13v66.386zm-9.484-123.29h137.515V23.32H20.647v14.227zm142.258-18.968h-147V122.9h9.484v42.677h71.129V122.9h5.752c2.234 7.857 8.056 14.202 15.586 17.155v16.04c0 5.228 4.254 9.482 9.484 9.482s9.484-4.254 9.484-9.482v-16.04c7.532-2.953 13.354-9.298 15.587-17.155h10.494V18.577z" mask="url(#b)"/>
        <path fill="#9EA5FF" d="M25.389 32.802h4.742v-4.741h-4.742zM34.873 32.802h4.741v-4.741h-4.741zM44.356 32.802h4.742v-4.741h-4.742z" mask="url(#b)"/>
        <path fill="#3896A3" d="M127.34 127.641c-6.536 0-11.854-5.318-11.854-11.855 0-6.536 5.318-11.854 11.854-11.854 6.537 0 11.855 5.318 11.855 11.854 0 6.537-5.318 11.855-11.855 11.855m0-28.45c-9.148 0-16.596 7.446-16.596 16.595 0 9.15 7.448 16.597 16.596 16.597 9.149 0 16.598-7.447 16.598-16.597 0-9.149-7.45-16.596-16.598-16.596M34.873 146.61h52.161v-4.743H34.873z" mask="url(#b)"/>
        <path fill="#373737" d="M82.292 156.094h4.742v-4.743h-4.742z" mask="url(#b)"/>
        <path fill="#4AC8D9" d="M34.873 156.094H77.55v-4.743H34.873z" mask="url(#b)"/>
        <path fill="#3896A3" d="M44.356 70.739a4.747 4.747 0 0 1-4.742-4.742 4.747 4.747 0 0 1 4.742-4.742 4.747 4.747 0 0 1 4.742 4.742 4.747 4.747 0 0 1-4.742 4.742m0-14.227c-5.23 0-9.483 4.253-9.483 9.485 0 5.23 4.253 9.484 9.483 9.484s9.483-4.254 9.483-9.484c0-5.232-4.253-9.485-9.483-9.485M97.466 56.987l-8.062 6.045-8.06-6.045-2.845 3.793 6.956 5.217-6.956 5.215 2.845 3.795 8.06-6.047 8.062 6.047 2.846-3.795-6.957-5.215 6.957-5.217zM129.711 70.738h9.484v-9.484h-9.484v9.484zm-4.742 4.743h18.969V56.512h-18.969v18.969zM60.953 114.749l6.793 8.15H54.16l6.793-8.15zm0-7.407l-16.917 20.3H77.87l-16.917-20.3z" mask="url(#b)"/>
        <path fill="#C5C9FF" d="M176.843 63.641l-5.857-5.859 1.567-1.567 5.857 5.858z" mask="url(#b)"/>
        <path fill="#C5C9FF" d="M172.553 63.641l-1.567-1.568 5.857-5.858 1.567 1.567z" mask="url(#b)"/>
        <path fill="#9EA5FF" d="M5.857 46.9L0 41.043l1.568-1.567 5.857 5.858z" mask="url(#b)"/>
        <path fill="#9EA5FF" d="M1.568 46.9L0 45.334l5.857-5.858 1.568 1.567z" mask="url(#b)"/>
        <path fill="#C5C9FF" d="M49.417 179.354l-5.857-5.857 1.567-1.567 5.857 5.858z" mask="url(#b)"/>
        <path fill="#C5C9FF" d="M45.127 179.354l-1.567-1.566 5.857-5.858 1.567 1.567zM157.036 7.424l-5.856-5.857L152.746 0l5.857 5.858z" mask="url(#b)"/>
        <path fill="#C5C9FF" d="M152.746 7.424l-1.566-1.566L157.036 0l1.567 1.567z" mask="url(#b)"/>
        <path fill="#9EA5FF" d="M139.712 7.424l-5.856-5.857L135.423 0l5.856 5.858z" mask="url(#b)"/>
        <path fill="#9EA5FF" d="M135.423 7.424l-1.567-1.566L139.712 0l1.567 1.567zM176.842 83.925l-5.857-5.856 1.568-1.568 5.857 5.857z" mask="url(#b)"/>
        <path fill="#9EA5FF" d="M172.553 83.925l-1.568-1.567 5.857-5.857 1.568 1.568z" mask="url(#b)"/>
        <path fill="#C5C9FF" d="M5.857 64.276L0 58.42l1.568-1.57 5.857 5.859z" mask="url(#b)"/>
        <path fill="#C5C9FF" d="M1.568 64.276L0 62.71l5.857-5.858 1.568 1.569z" mask="url(#b)"/>
    </g>
</svg>
