<svg xmlns="http://www.w3.org/2000/svg" width="180" height="162" viewBox="0 0 180 162">
    <g fill="none" fill-rule="evenodd">
        <path fill="#DBF4F7" d="M25.922 88.856h98.17V24.81h-98.17z"/>
        <path fill="#FFF" d="M116.218 57.358h43.573V25.86h-43.573zM115.693 103.555h43.572V72.057h-43.572zM115.168 149.228h43.572v-31.499h-43.572z"/>
        <path fill="#4AC8D9" d="M35.5 78.29h14.226V54.581H35.5zM59.21 78.289h14.226V42.725H59.21zM82.92 78.29h14.226V35.613H82.92z"/>
        <path fill="#3896A3" d="M14.162 14.274v147h113.806v-9.485h33.193v-37.935h-33.193v-7.113h33.193V68.806h-33.193v-7.113h33.193V23.758h-33.193v-9.484H14.162zm4.742 4.742h104.322v4.742H23.645v66.387h71.13v-4.742H28.386V28.5h85.356v11.855h-9.485v45.048h-4.74v4.742h4.74v45.048h9.485v16.596h9.483v4.743H18.904V19.016zm99.58 37.935h37.936v-28.45h-37.936v28.45zM109 45.096h4.743v40.307H109V45.096zm9.484 23.71h4.742v-7.113h-4.742v7.113zm0 21.34V73.546h37.936v28.454h-37.936V90.145zm-9.484 0h4.743v16.595h9.483v7.113h-9.483v16.597H109V90.145zm9.484 56.902h37.936v-28.452h-37.936v28.452z"/>
        <path fill="#4AC8D9" d="M24.834 103.779h38.231v-4.741H24.834zM24.834 118.744h38.231v-4.74H24.834zM24.834 133.711h38.231v-4.742H24.834z"/>
        <path fill="#373737" d="M59.657 149.122h4.742v-4.741h-4.742z"/>
        <path fill="#C5C9FF" d="M75.585 118.005h13.337v-4.741H75.585z"/>
        <path fill="#4AC8D9" d="M24.834 148.678h21.24v-4.742h-21.24z"/>
        <path fill="#92DEE8" d="M123.227 52.21h28.452V33.241h-28.452zM123.227 142.306h28.452v-18.968h-28.452zM123.227 97.259h28.452V78.29h-28.452z"/>
        <path fill="#777CBF" d="M20.854 1l-1.567 1.567 5.856 5.857 1.568-1.566z"/>
        <path fill="#777CBF" d="M25.143 1l-5.856 5.858 1.567 1.566 5.857-5.857z"/>
        <path fill="#9EA5FF" d="M172.28 60.188l5.857 5.858 1.567-1.567-5.858-5.857z"/>
        <path fill="#9EA5FF" d="M172.28 64.479l1.566 1.567 5.858-5.858-1.567-1.566zM34.33 2.567l5.857 5.857 1.568-1.566L35.898 1z"/>
        <path fill="#9EA5FF" d="M34.33 6.858l1.568 1.566 5.857-5.857L40.187 1zM0 150.762l5.857 5.858 1.567-1.569-5.856-5.857z"/>
        <path fill="#9EA5FF" d="M0 155.051l1.568 1.57 5.856-5.859-1.567-1.568z"/>
        <path fill="#C5C9FF" d="M0 132.912l5.857 5.858 1.567-1.569-5.856-5.856z"/>
        <path fill="#C5C9FF" d="M0 137.202l1.568 1.569 5.856-5.858-1.567-1.567zM172.28 89.641l5.857 5.856 1.567-1.568-5.858-5.857z"/>
        <path fill="#C5C9FF" d="M172.28 93.93l1.566 1.568 5.858-5.856-1.567-1.57z"/>
    </g>
</svg>
