<svg xmlns="http://www.w3.org/2000/svg" xmlns:xlink="http://www.w3.org/1999/xlink" width="162" height="135" viewBox="0 0 162 135">
    <defs>
        <path id="a" d="M.109 2.651l7.001 7 1.875-1.873L1.984.776z"/>
        <path id="c" d="M.109 7.778l1.875 1.873 7.001-7L7.11.776z"/>
        <path id="e" d="M.36 2.565l7.001 7 1.873-1.873L2.233.691z"/>
        <path id="g" d="M.36 7.692l1.873 1.873 7.001-7L7.361.691z"/>
        <path id="i" d="M.176 2.029l7.001 7.002 1.874-1.873L2.049.156z"/>
        <path id="k" d="M.176 7.158l1.873 1.873 7.002-7.002L7.177.156z"/>
        <path id="m" d="M.135 1.873l7.001 7.002 1.873-1.873L2.008 0z"/>
        <path id="o" d="M.135 7.002l1.873 1.873 7.001-7.002L7.136 0z"/>
        <path id="q" d="M.634 2.373l7.001 7.002 1.873-1.873-7-7.002z"/>
        <path id="s" d="M.634 7.502l1.874 1.873 7-7.002L7.635.5z"/>
        <path id="u" d="M.075.405L.073 13.47h3.495L3.569.405z"/>
        <path id="w" d="M.289 3.685h13.065V.189H.289z"/>
        <path id="y" d="M.391 1.92l7.001 6.999 1.873-1.874-7.002-7z"/>
        <path id="A" d="M.391 7.045l1.872 1.874L9.265 1.92 7.392.045z"/>
    </defs>
    <g fill="none" fill-rule="evenodd">
        <path fill="#DBF4F7" d="M140.61 79.401c-2.704-15.143-9.307-52.207-13.62-57.784C119.326 9.187 103.848.671 85.975.671c-25.495 0-54.063 4.685-56.143 42.22C27.794 79.654 38.05 87.52 45.334 94.34a14.122 14.122 0 0 1 4.472 10.31v24.904a3.372 3.372 0 0 0 3.374 3.375h41.072a3.372 3.372 0 0 0 3.371-3.375v-3.724a7.875 7.875 0 0 1 7.913-7.87c5.812.03 12.835.044 13.56-.05 11.374-1.457 8.215-14.059 10.868-32.1h6.29a4.697 4.697 0 0 0 3.872-2.05c.871-1.282.757-2.832.484-4.358"/>
        <path stroke="#3896A3" stroke-width="5" d="M140.61 79.401c-2.704-15.143-9.307-52.207-13.62-57.784C119.326 9.187 103.848.671 85.975.671c-25.495 0-54.063 4.685-56.143 42.22C27.794 79.654 38.05 87.52 45.334 94.34a14.122 14.122 0 0 1 4.472 10.31v24.904a3.372 3.372 0 0 0 3.374 3.375h41.072a3.372 3.372 0 0 0 3.371-3.375v-3.724a7.875 7.875 0 0 1 7.913-7.87c5.812.03 12.835.044 13.56-.05 11.374-1.457 8.215-14.059 10.868-32.1h6.29a4.697 4.697 0 0 0 3.872-2.05c.871-1.282.757-2.832.484-4.358z"/>
        <path fill="#4AC8D9" d="M76.828 20.816c0-.733.594-1.327 1.327-1.327h1.785c.734 0 1.327.594 1.327 1.327v7.333c0 .734-.593 1.328-1.327 1.328h-1.785a1.328 1.328 0 0 1-1.327-1.328v-7.333zM56.16 28.185a1.33 1.33 0 0 1 1.877 0l3.882 3.884a1.326 1.326 0 0 1 0 1.876l-1.263 1.262a1.323 1.323 0 0 1-1.876 0l-3.883-3.884a1.328 1.328 0 0 1 .002-1.877l1.26-1.261zM92.863 76.078v3.276c0 4.233-2.766 7.794-6.58 9.073v3.678a3.717 3.717 0 0 1-3.719 3.722h-7.033a3.716 3.716 0 0 1-3.718-3.722v-3.678c-3.816-1.279-6.58-4.84-6.58-9.073v-3.276c-5.177-4.562-7.749-11.296-6.912-18.229 1.146-9.467 8.854-17.108 18.338-18.164 12.61-1.397 23.271 8.452 23.271 20.752a20.758 20.758 0 0 1-7.067 15.641M99.318 34.768a1.33 1.33 0 0 1-1.878 0l-1.262-1.26a1.33 1.33 0 0 1 0-1.878l3.88-3.883a1.327 1.327 0 0 1 1.878 0l1.262 1.262a1.328 1.328 0 0 1 0 1.876l-3.88 3.883z"/>
        <path fill="#FFF" d="M79.043 43.992c-.624 0-1.257.035-1.894.106-7.458.831-13.522 6.838-14.419 14.285-.698 5.755 1.582 11.332 6.101 14.922a2.23 2.23 0 0 1 .84 1.738v4.312a5.173 5.173 0 0 0 5.168 5.17h8.418a5.174 5.174 0 0 0 5.167-5.17v-4.312c0-.676.312-1.316.841-1.736 3.954-3.148 6.225-7.838 6.225-12.869 0-9.067-7.378-16.446-16.447-16.446"/>
        <g transform="translate(153 28.386)">
            <mask id="b" fill="#fff">
                <use xlink:href="#a"/>
            </mask>
            <path fill="#C5C9FF" d="M-4.891 14.651h18.875V-4.224H-4.891z" mask="url(#b)"/>
        </g>
        <g transform="translate(153 28.386)">
            <mask id="d" fill="#fff">
                <use xlink:href="#c"/>
            </mask>
            <path fill="#C5C9FF" d="M-4.891 14.651h18.875V-4.224H-4.891z" mask="url(#d)"/>
        </g>
        <g transform="translate(16 100.386)">
            <mask id="f" fill="#fff">
                <use xlink:href="#e"/>
            </mask>
            <path fill="#C5C9FF" d="M-4.64 14.565h18.874V-4.308H-4.64z" mask="url(#f)"/>
        </g>
        <g transform="translate(16 100.386)">
            <mask id="h" fill="#fff">
                <use xlink:href="#g"/>
            </mask>
            <path fill="#C5C9FF" d="M-4.64 14.565h18.874V-4.308H-4.64z" mask="url(#h)"/>
        </g>
        <g transform="translate(0 47.386)">
            <mask id="j" fill="#fff">
                <use xlink:href="#i"/>
            </mask>
            <path fill="#9EA5FF" d="M-4.824 14.031h18.875V-4.844H-4.824z" mask="url(#j)"/>
        </g>
        <g transform="translate(0 47.386)">
            <mask id="l" fill="#fff">
                <use xlink:href="#k"/>
            </mask>
            <path fill="#9EA5FF" d="M-4.824 14.031h18.875V-4.844H-4.824z" mask="url(#l)"/>
        </g>
        <g transform="translate(145 98.386)">
            <mask id="n" fill="#fff">
                <use xlink:href="#m"/>
            </mask>
            <path fill="#9EA5FF" d="M-4.865 13.875h18.874V-5H-4.865z" mask="url(#n)"/>
        </g>
        <g transform="translate(145 98.386)">
            <mask id="p" fill="#fff">
                <use xlink:href="#o"/>
            </mask>
            <path fill="#9EA5FF" d="M-4.865 13.875h18.874V-5H-4.865z" mask="url(#p)"/>
        </g>
        <g transform="translate(137 10.386)">
            <mask id="r" fill="#fff">
                <use xlink:href="#q"/>
            </mask>
            <path fill="#9EA5FF" d="M-4.365 14.375h18.874V-4.5H-4.365z" mask="url(#r)"/>
        </g>
        <g transform="translate(137 10.386)">
            <mask id="t" fill="#fff">
                <use xlink:href="#s"/>
            </mask>
            <path fill="#9EA5FF" d="M-4.365 14.375h18.874V-4.5H-4.365z" mask="url(#t)"/>
        </g>
        <g transform="translate(77 54.386)">
            <mask id="v" fill="#fff">
                <use xlink:href="#u"/>
            </mask>
            <path fill="#9EA5FF" d="M-15.79 6.938L1.821 24.549 19.433 6.937 1.822-10.674z" mask="url(#v)"/>
        </g>
        <g transform="translate(72 59.386)">
            <mask id="x" fill="#fff">
                <use xlink:href="#w"/>
            </mask>
            <path fill="#9EA5FF" d="M-10.79 1.938L6.821 19.549 24.433 1.937 6.822-15.674z" mask="url(#x)"/>
        </g>
        <g transform="translate(145 125.386)">
            <mask id="z" fill="#fff">
                <use xlink:href="#y"/>
            </mask>
            <path fill="#C5C9FF" d="M-4.609 13.92h18.874V-4.955H-4.609z" mask="url(#z)"/>
        </g>
        <g transform="translate(145 125.386)">
            <mask id="B" fill="#fff">
                <use xlink:href="#A"/>
            </mask>
            <path fill="#C5C9FF" d="M-4.609 13.92h18.874V-4.955H-4.609z" mask="url(#B)"/>
        </g>
    </g>
</svg>
