<svg xmlns="http://www.w3.org/2000/svg" xmlns:xlink="http://www.w3.org/1999/xlink" width="141" height="156" viewBox="0 0 141 156">
    <defs>
        <path id="a" d="M0 155h141V0H0z"/>
    </defs>
    <g fill="none" fill-rule="evenodd" transform="translate(0 .734)">
        <path fill="#DBF4F7" d="M119.19 59.566c.996.33 1.81 18.564 1.81 38.364v11.959c0 19.8-.814 38.093-1.81 38.454-.994.361-18.074.657-37.956.657H55.693c-19.882 0-38.463-.7-38.9-1.556-.436-.856-.793-17.755-.793-37.555v-11.96c0-19.8.797-38.032 1.772-38.363.975-.331 18.04-.566 37.92-.566h25.542c19.882 0 36.962.235 37.957.566z"/>
        <path fill="#3896A3" d="M118.85 98.026H87.62c-9.965 0-18.069 8.107-18.069 18.127s8.104 18.13 18.07 18.13h31.23v7.893c0 4.294-3.726 7.645-7.997 7.645H28.247c-4.27 0-8.097-3.35-8.097-7.645V77.26c2.574 1.634 5.194 2.638 8.097 2.638h82.607c4.27 0 7.996 3.459 7.996 7.753v10.376zm0 31.077H87.62c-7.117 0-12.907-5.79-12.907-12.95 0-7.158 5.79-12.948 12.908-12.948h31.23v25.898zM110.854 54H85.378v5.18h25.476c4.27 0 7.996 3.403 7.996 7.7v10.452c-2.574-1.65-5.078-2.614-7.996-2.614H28.247c-4.27 0-7.744-3.474-7.744-7.77 0-4.296 3.474-7.769 7.744-7.769h28.808V54H28.247C21.13 54 15 59.72 15 66.88v75.296C15 149.336 21.13 155 28.247 155h82.607c7.118 0 13.146-5.665 13.146-12.824V66.88c0-7.16-6.028-12.88-13.146-12.88z"/>
        <mask id="b" fill="#fff">
            <use xlink:href="#a"/>
        </mask>
        <path fill="#4AC8D9" d="M28 70h83v-5H28z" mask="url(#b)"/>
        <path fill="#FFF" d="M90 45.5C90 56.823 80.823 66 69.5 66 58.18 66 49 56.823 49 45.5 49 34.18 58.18 25 69.5 25 80.823 25 90 34.18 90 45.5" mask="url(#b)"/>
        <path stroke="#3896A3" stroke-width="7" d="M90 45.5C90 56.823 80.823 66 69.5 66 58.18 66 49 56.823 49 45.5 49 34.18 58.18 25 69.5 25 80.823 25 90 34.18 90 45.5z" mask="url(#b)"/>
        <path fill="#3896A3" d="M71.125 50.251h-3.25c-.895 0-1.625-.711-1.625-1.584H63c0 2.62 2.186 4.75 4.875 4.75V55h3.25v-1.583c2.689 0 4.875-2.13 4.875-4.75s-2.186-4.75-4.875-4.75h-3.25c-.895 0-1.625-.71-1.625-1.583 0-.874.73-1.583 1.625-1.583h3.25c.896 0 1.626.71 1.626 1.583H76c0-2.619-2.186-4.75-4.875-4.75V36h-3.25v1.584c-2.689 0-4.875 2.131-4.875 4.75 0 2.618 2.186 4.75 4.875 4.75h3.25c.896 0 1.626.71 1.626 1.583s-.73 1.584-1.626 1.584" mask="url(#b)"/>
        <path fill="#4AC8D9" d="M90.666 116A2.67 2.67 0 0 1 88 118.667 2.668 2.668 0 0 1 85.333 116a2.67 2.67 0 0 1 2.666-2.667A2.67 2.67 0 0 1 90.666 116M80 116c0 4.41 3.588 8 8 8 4.41 0 8-3.59 8-8s-3.59-8-8-8c-4.412 0-8 3.59-8 8" mask="url(#b)"/>
        <path fill="#3896A3" d="M67 16h4V0h-4zM82 22h4V6h-4zM53 24h4V11h-4z" mask="url(#b)"/>
        <path fill="#C5C9FF" d="M5.523 90L0 84.477 1.477 83 7 88.523z" mask="url(#b)"/>
        <path fill="#C5C9FF" d="M1.477 90L0 88.523 5.523 83 7 84.477z" mask="url(#b)"/>
        <path fill="#9EA5FF" d="M139.523 124L134 118.477l1.477-1.477 5.523 5.523z" mask="url(#b)"/>
        <path fill="#9EA5FF" d="M135.477 124L134 122.523l5.523-5.523 1.477 1.477z" mask="url(#b)"/>
        <path fill="#C5C9FF" d="M39.522 32L34 26.478 35.478 25 41 30.523z" mask="url(#b)"/>
        <path fill="#C5C9FF" d="M35.478 32L34 30.523 39.522 25 41 26.478zM103.522 31L98 25.477 99.478 24 105 29.523z" mask="url(#b)"/>
        <path fill="#C5C9FF" d="M99.478 31L98 29.523 103.522 24 105 25.477z" mask="url(#b)"/>
        <path fill="#9EA5FF" d="M6.522 68L1 62.477 2.478 61 8 66.523z" mask="url(#b)"/>
        <path fill="#9EA5FF" d="M2.478 68L1 66.523 6.522 61 8 62.477z" mask="url(#b)"/>
        <path fill="#C5C9FF" d="M139.523 147L134 141.479l1.477-1.479 5.523 5.521z" mask="url(#b)"/>
        <path fill="#C5C9FF" d="M135.477 147L134 145.521l5.523-5.521 1.477 1.479z" mask="url(#b)"/>
    </g>
</svg>
