<svg xmlns="http://www.w3.org/2000/svg" width="45" height="45" viewBox="0 0 45 45">
    <g fill="none" fill-rule="evenodd">
        <path fill="#FFF" d="M29.142 23.506l.649-5.025h-4.978v-3.208c0-1.457.403-2.448 2.49-2.448l2.66-.005V8.325c-.458-.061-2.037-.198-3.877-.198-3.838 0-6.465 2.342-6.465 6.649v3.705H15.28v5.025h4.34v12.9h5.193v-12.9h4.329z"/>
        <path stroke="#FFF" stroke-width="2.5" d="M44.705 22.266c0 12.16-9.887 22.018-22.084 22.018-12.195 0-22.083-9.858-22.083-22.018C.538 10.108 10.426.25 22.621.25c12.197 0 22.084 9.858 22.084 22.016z"/>
    </g>
</svg>
