<svg xmlns="http://www.w3.org/2000/svg" xmlns:xlink="http://www.w3.org/1999/xlink" width="163" height="140" viewBox="0 0 163 140">
    <defs>
        <path id="a" d="M7.806.837H.162V8.48h7.644V.837z"/>
        <path id="c" d="M7.806.837H.162V8.48h7.644V.837z"/>
    </defs>
    <g fill="none" fill-rule="evenodd">
        <path fill="#DBF4F7" d="M20.65 75.782c0-32.244 26.14-58.383 58.381-58.384 32.244 0 58.383 26.14 58.383 58.383s-26.139 58.382-58.383 58.382c-32.242 0-58.38-26.139-58.38-58.38"/>
        <path stroke="#3896A3" stroke-width="5" d="M20.65 75.782c0-32.244 26.14-58.383 58.381-58.384 32.244 0 58.383 26.14 58.383 58.383s-26.139 58.382-58.383 58.382c-32.242 0-58.38-26.139-58.38-58.38z"/>
        <path fill="#DBF4F7" d="M34.078 75.782c0-24.827 20.126-44.955 44.953-44.955 24.828 0 44.953 20.128 44.953 44.955.002 24.826-20.125 44.953-44.953 44.953-24.827 0-44.953-20.126-44.953-44.953"/>
        <path stroke="#3896A3" stroke-width="5" d="M34.078 75.782c0-24.827 20.126-44.955 44.953-44.955 24.828 0 44.953 20.128 44.953 44.955.002 24.826-20.125 44.953-44.953 44.953-24.827 0-44.953-20.126-44.953-44.953z"/>
        <path fill="#4AC8D9" d="M81.21 76.118a3.01 3.01 0 0 1-3.007 3.007 3.008 3.008 0 0 1 0-6.015 3.012 3.012 0 0 1 3.008 3.008m-12.028 0c0 4.975 4.047 9.022 9.02 9.022 4.977 0 9.024-4.047 9.024-9.022 0-4.976-4.047-9.023-9.024-9.023-4.973 0-9.02 4.047-9.02 9.023"/>
        <path stroke="#4AC8D9" stroke-linecap="round" stroke-width="6" d="M78.205 47.113v22.468M82.283 81.308L98.17 97.195"/>
        <path fill="#92DEE8" d="M113.756 131.208l2.666 3.248c13.684-8.398 23.217-20.324 28.457-35.642l-3.648-2.037c-4.81 14.402-14.653 26.56-27.475 34.43M144.486 76.782c0 4.722-.535 9.321-1.523 13.755l3.714 2.065a68.184 68.184 0 0 0 1.873-15.82c0-11.377-2.818-22.109-7.775-31.58l-3.539 2.217a62.974 62.974 0 0 1 7.25 29.363"/>
        <path fill="#C5C9FF" d="M6.03 45.935L0 39.906l1.614-1.615 6.031 6.032z"/>
        <path fill="#C5C9FF" d="M1.614 45.935L0 44.322l6.03-6.032 1.615 1.617z"/>
        <path fill="#9EA5FF" d="M161.24 79.603l-6.029-6.029 1.611-1.616 6.031 6.031z"/>
        <path fill="#9EA5FF" d="M156.822 79.603l-1.61-1.614 6.028-6.03 1.613 1.615z"/>
        <path fill="#C5C9FF" d="M161.24 100.741l-6.029-6.029 1.611-1.616 6.031 6.031z"/>
        <path fill="#C5C9FF" d="M156.822 100.741l-1.61-1.614 6.028-6.03 1.613 1.615z"/>
        <g transform="translate(120 5.663)">
            <mask id="b" fill="#fff">
                <use xlink:href="#a"/>
            </mask>
            <path fill="#C5C9FF" d="M6.191 8.48L.162 2.451 1.777.836l6.03 6.032z" mask="url(#b)"/>
        </g>
        <g transform="translate(120 5.663)">
            <mask id="d" fill="#fff">
                <use xlink:href="#c"/>
            </mask>
            <path fill="#C5C9FF" d="M1.777 8.48L.162 6.868 6.192.837l1.614 1.615z" mask="url(#d)"/>
        </g>
        <path fill="#9EA5FF" d="M6.03 67.324l-6.029-6.03 1.612-1.613 6.03 6.03z"/>
        <path fill="#9EA5FF" d="M1.613 67.324L.001 65.711l6.03-6.03 1.612 1.613zM19.037 130.114l-6.029-6.03 1.612-1.613 6.03 6.03z"/>
        <path fill="#9EA5FF" d="M14.62 130.114l-1.612-1.613 6.03-6.03 1.612 1.612z"/>
    </g>
</svg>
