<svg xmlns="http://www.w3.org/2000/svg" xmlns:xlink="http://www.w3.org/1999/xlink" width="1370" height="581" viewBox="0 0 1370 581">
    <defs>
        <path id="a" d="M239.57 0H0v209.82h239.57V0z"/>
        <path id="c" d="M0 57.348h65.474V0H0z"/>
    </defs>
    <g fill="none" fill-rule="evenodd">
        <path fill="#9EA5FF" d="M482 580.915h888V25.137H482z"/>
        <path fill="#F7F7F7" d="M10 580.915h472V25.137H10z"/>
        <g transform="translate(0 .734)">
            <mask id="b" fill="#fff">
                <use xlink:href="#a"/>
            </mask>
            <path fill="#ECEDFF" d="M239.57 30.544c-19.855 13.035-34.722 26.884-44.64 41.495-9.917 14.612-14.865 33.173-14.865 55.593 1.572-.507 3.909-.803 7.05-.803 10.43 0 19.965 3.402 28.566 10.196 8.62 6.795 12.93 16.687 12.93 29.733 0 13.59-3.927 24.16-11.743 31.728-7.836 7.559-17.754 11.334-29.752 11.334-15.673 0-27.798-5.982-36.4-18.005-8.622-11.974-12.933-29.482-12.933-52.458 0-31.297 7.05-58.44 21.152-81.423 14.08-22.936 34.7-42.261 61.843-57.934l18.793 30.544zm-137.783 0C81.93 43.579 67.065 57.428 57.147 72.039c-9.917 14.612-14.865 33.173-14.865 55.593 1.572-.507 3.909-.803 7.05-.803 10.43 0 19.963 3.402 28.564 10.196 8.622 6.795 12.913 16.687 12.913 29.733 0 13.59-3.908 24.16-11.723 31.728-7.837 7.559-17.755 11.334-29.754 11.334-15.67 0-27.798-5.982-36.4-18.005C4.313 179.84 0 162.333 0 139.357c0-31.297 7.05-58.44 21.152-81.423C35.232 34.998 55.852 15.673 82.994 0l18.793 30.544z" mask="url(#b)"/>
        </g>
        <g transform="translate(1279 482.734)">
            <mask id="d" fill="#fff">
                <use xlink:href="#c"/>
            </mask>
            <path fill="#C5C9FF" d="M37.66 49.21c5.41-3.564 9.45-7.336 12.085-11.342 2.635-3.981 3.958-9.125 3.958-15.405-.417.15-.998.22-1.717.22-2.996 0-5.632-.929-7.918-2.786-2.276-1.846-3.413-4.492-3.413-7.916 0-3.704 1.068-6.629 3.204-8.766C45.995 1.067 48.712 0 51.986 0c4.144 0 7.43 1.684 9.844 5.026 2.437 3.355 3.644 8.173 3.644 14.442 0 8.567-1.96 15.95-5.884 22.15-3.925 6.211-9.602 11.446-17.008 15.73L37.66 49.21zM0 49.21c5.41-3.564 9.45-7.336 12.085-11.342 2.636-3.981 3.96-9.125 3.96-15.405-.419.15-1 .22-1.719.22-2.996 0-5.63-.929-7.918-2.786-2.274-1.846-3.413-4.492-3.413-7.916 0-3.704 1.07-6.629 3.205-8.766C8.336 1.067 11.052 0 14.326 0c4.145 0 7.43 1.684 9.844 5.026 2.438 3.355 3.645 8.173 3.645 14.442 0 8.567-1.962 15.95-5.885 22.15-3.923 6.211-9.6 11.446-17.008 15.73L0 49.21z" mask="url(#d)"/>
        </g>
    </g>
</svg>
