<svg xmlns="http://www.w3.org/2000/svg" xmlns:xlink="http://www.w3.org/1999/xlink" width="50" height="50" viewBox="0 0 50 50">
    <defs>
        <path id="a" d="M0 50h50V0H0z"/>
    </defs>
    <g fill="none" fill-rule="evenodd">
        <path stroke="#FFF" stroke-width="2.5" d="M46.389 24.527c0 12.16-9.887 22.018-22.083 22.018-12.196 0-22.083-9.859-22.083-22.018 0-12.158 9.887-22.016 22.083-22.016 12.196 0 22.083 9.858 22.083 22.016z"/>
        <mask id="b" fill="#fff">
            <use xlink:href="#a"/>
        </mask>
        <path fill="#FFF" d="M13.414 33.661h4.994V18.638h-4.994v15.023zm2.53-22.266c-1.709 0-2.827 1.121-2.827 2.595 0 1.442 1.086 2.598 2.762 2.598h.033c1.742 0 2.826-1.155 2.826-2.598-.033-1.474-1.084-2.595-2.794-2.595zm20.475 13.652v8.614h-4.994v-8.038c0-2.019-.722-3.396-2.53-3.396-1.379 0-2.202.928-2.563 1.826-.131.322-.166.768-.166 1.218v8.39H21.17s.068-13.613 0-15.023h4.996v2.129l-.033.048h.033v-.048c.664-1.023 1.85-2.483 4.502-2.483 3.287 0 5.751 2.148 5.751 6.763z" mask="url(#b)"/>
    </g>
</svg>
