<svg xmlns="http://www.w3.org/2000/svg" xmlns:xlink="http://www.w3.org/1999/xlink" width="159" height="146" viewBox="0 0 159 146">
    <defs>
        <path id="a" d="M0 146h159V0H0z"/>
    </defs>
    <g fill="none" fill-rule="evenodd">
        <path fill="#DBF4F7" d="M138 121.533c0 .81-.662 1.467-1.477 1.467H22.478A1.473 1.473 0 0 1 21 121.533V43.468c0-.81.662-1.468 1.478-1.468h114.045c.815 0 1.477.658 1.477 1.468v78.065z"/>
        <path fill="#FFF" d="M122 61.5c0 24.026-19.477 43.5-43.5 43.5C54.475 105 35 85.526 35 61.5 35 37.476 54.476 18 78.5 18c24.023 0 43.5 19.476 43.5 43.5"/>
        <path fill="#C5C9FF" d="M32.733 24L28 19.268 29.267 18 34 22.734z"/>
        <path fill="#C5C9FF" d="M29.267 24L28 22.734 32.733 18 34 19.268z"/>
        <path fill="#9EA5FF" d="M141.733 28L137 23.268 138.265 22 143 26.733z"/>
        <path fill="#9EA5FF" d="M138.265 28L137 26.733 141.733 22 143 23.268z"/>
        <path fill="#C5C9FF" d="M82.733 6L78 1.268 79.267 0 84 4.735z"/>
        <path fill="#C5C9FF" d="M79.267 6L78 4.735 82.733 0 84 1.268z"/>
        <path fill="#9EA5FF" d="M4.734 89L0 84.266 1.266 83 6 87.734z"/>
        <path fill="#9EA5FF" d="M1.266 89L0 87.734 4.734 83 6 84.266z"/>
        <path fill="#C5C9FF" d="M156.734 92L152 87.267 153.266 86 158 90.733z"/>
        <path fill="#C5C9FF" d="M153.266 92L152 90.733 156.734 86 158 87.267z"/>
        <path fill="#92DEE8" d="M104 57H92v-5.999c0-2.206-1.794-4-4-4H78V25h12v10.125c7.88.987 14 7.729 14 15.876V57z"/>
        <path fill="#92DEE8" d="M90 98H78V76h10c2.206 0 4-1.794 4-4s-1.794-4-4-4H78V56h10c8.822 0 16 7.179 16 16 0 8.144-6.119 14.887-14 15.877V98z"/>
        <path fill="#92DEE8" d="M79 27c-18.778 0-34 15.221-34 34s15.222 34 34 34V27z"/>
        <path fill="#3896A3" d="M132 123.13H28c-3.308 0-6-2.67-6-5.951v-1.985h104v-3.967H22v-61.5c0-3.282 2.692-5.952 6-5.952h9.673a45.048 45.048 0 0 0-3.672 17.855c0 25.162 20.633 45.63 46 45.63 25.365 0 46-20.468 46-45.63 0-6.333-1.311-12.368-3.673-17.855h9.671c3.31 0 6 2.67 6 5.952v61.5h-8v3.967h8v1.985c0 3.28-2.69 5.95-6 5.95zm-76 11.903H104v-7.936H56v7.936zM73.13 20.575c-4.189 3.707-9.666 9.955-13.29 19.343-5.34-2.167-9.033-4.709-10.93-6.201a42.01 42.01 0 0 1 24.22-13.142zm-13.295 62.75c3.622 9.399 9.103 15.65 13.295 19.36a41.992 41.992 0 0 1-24.223-13.147c1.89-1.497 5.575-4.044 10.928-6.213zm-3.792-19.711c.17 6.004 1.094 11.295 2.492 15.918-5.932 2.367-10.023 5.21-12.174 6.932-4.849-6.443-7.85-14.306-8.257-22.85h17.939zm0-3.968h-17.94c.408-8.545 3.409-16.407 8.258-22.854 2.151 1.724 6.242 4.568 12.174 6.934-1.398 4.626-2.322 9.915-2.492 15.92zM78 47.676v11.97H60.043c.165-5.495 1.002-10.337 2.265-14.573 4.431 1.4 9.683 2.41 15.692 2.604zm0-25.966v21.997c-5.494-.195-10.32-1.137-14.398-2.43C67.665 30.775 74.204 24.595 78 21.71zm0 53.872c-5.99.192-11.228 1.2-15.655 2.594-1.279-4.242-2.136-9.08-2.302-14.565H78v11.971zm-14.348 6.37c4.065-1.279 8.868-2.21 14.348-2.401v21.95c-3.768-2.916-10.274-9.133-14.348-19.548zM122 61.63c0 22.302-17.773 40.514-40 41.56V20.07c22.227 1.046 40 19.258 40 41.56zm10-21.823h-11.612C112.573 25.634 97.401 16 80 16c-17.402 0-32.574 9.634-40.387 23.807H28c-5.513 0-10 4.45-10 9.92v67.452c0 5.47 4.487 9.92 10 9.92h24v7.934H44V139H116v-3.967h-8v-7.935h24c5.512 0 10-4.45 10-9.92v-67.45c0-5.471-4.488-9.921-10-9.921z"/>
        <mask id="b" fill="#fff">
            <use xlink:href="#a"/>
        </mask>
        <path fill="#92DEE8" d="M43 147h34v-4H43zM83 147h15v-4H83z" mask="url(#b)"/>
    </g>
</svg>
