<svg xmlns="http://www.w3.org/2000/svg" width="230" height="159" viewBox="0 0 230 159">
    <g fill="none" fill-rule="evenodd">
        <path fill="#C5C9FF" d="M16.16 109.41l6.087 6.089 1.629-1.63-6.088-6.087z"/>
        <path fill="#C5C9FF" d="M16.16 113.87l1.628 1.629 6.088-6.088-1.629-1.629z"/>
        <path fill="#9EA5FF" d="M111.362 12.577l6.088 6.089 1.628-1.629-6.087-6.089z"/>
        <path fill="#9EA5FF" d="M111.362 17.037l1.629 1.629 6.087-6.089-1.628-1.629zM206.726 71.163l6.087 6.089 1.63-1.629-6.088-6.089z"/>
        <path fill="#9EA5FF" d="M206.726 75.623l1.629 1.629 6.087-6.089-1.63-1.628z"/>
        <path fill="#C5C9FF" d="M42.4 35.349l6.087 6.087 1.63-1.63-6.088-6.088z"/>
        <path fill="#C5C9FF" d="M42.4 39.807l1.629 1.63 6.088-6.088-1.63-1.63zM179.828 35.382l6.088 6.088 1.63-1.629-6.088-6.087z"/>
        <path fill="#C5C9FF" d="M179.828 39.842l1.63 1.628 6.088-6.088-1.63-1.628z"/>
        <path fill="#9EA5FF" d="M15.654 86.843l6.087 6.088 1.63-1.628-6.087-6.088z"/>
        <path fill="#9EA5FF" d="M15.654 91.303l1.63 1.628 6.088-6.087-1.63-1.629z"/>
        <path fill="#C5C9FF" d="M206.657 59.574l6.087 6.087 1.63-1.63-6.09-6.087z"/>
        <path fill="#C5C9FF" d="M206.657 64.03l1.628 1.632 6.089-6.088-1.63-1.63z"/>
        <path fill="#DBF4F7" d="M73.826 65.732l27.827 1.16s8.406-8.84 20-5.942c2.173.724 32.463 11.159 32.463 11.159l15.507 42.464-8.985 3.188-1.74 7.536-1.014 1.45-.87 1.014-1.159.725-1.739.87-1.304.434-1.45.145h-1.304s-.29.145-.435.725c-.144.58-.376.148-.695 1.016-.319.867-.754.867-1.189 1.737-.434.87-1.45 1.74-1.45 1.74l-1.738.58s-2.029-.146-2.609.144c-.58.29-2.319.145-2.319.145l-1.74.145-1.304.29s-1.013 2.463-1.159 3.043c-.145.58-.725.58-1.014 1.304-.29.726-1.16 1.16-1.74 1.885-.579.724-1.158.87-1.883 1.304-.725.435 1.16.29-1.74.58-2.898.29-3.768.144-3.768.144s-1.67.506-2.502.036c-.83-.47-2.28-2.644-2.28-2.644s.144 1.884-.87 2.464c-1.014.58-1.45.724-2.609 1.014-1.159.29-1.015.435-2.608.145-1.594-.29-1.884-.29-3.623-1.159-1.74-.87-.87-.58-3.044-1.45-2.173-.87-1.883-1.159-3.478-1.739-1.595-.58-1.739-.29-2.754-1.45-1.014-1.158 2.464 1.45-2.174-2.463-4.637-3.913-5.218-3.913-5.797-4.637-.58-.725-.723-.58-1.449-1.45-.725-.87-1.305-1.159-2.03-2.028-.724-.87-1.448-1.45-2.463-2.174-1.015-.725-4.058-3.044-4.058-3.044s-2.464-.145-3.478-1.015c-1.014-.87-2.028-1.884-3.188-3.043-1.16-1.16-1.884-1.74-2.754-2.32-.87-.578-1.45-1.158-1.74-1.593l-1.158-1.74c-.58-.869-.87-1.014-1.595-2.173-.724-1.16-1.16-1.594-1.74-2.464-.578-.87-3.332-3.913-3.332-3.913v-5.362s.29-1.015.724-2.32c.435-1.304.29-1.593.87-2.898.58-1.304.434-1.594.87-3.188.434-1.594-.146-.87.434-2.609.58-1.74.29-1.594.725-2.898.435-1.305.289-1.16.58-2.174.29-1.015 0-.87.58-2.464.58-1.594.289-1.304.724-2.754s.29-.58.58-3.043c.29-2.464.145-2.609.435-3.768.29-1.16.579-1.884.724-2.319.145-.435.144-.724.435-1.16.29-.434 1.594-3.188 1.594-3.188"/>
        <path fill="#3896A3" d="M161.68 117.192c-3.08-6.422-14.098-15.334-24.743-23.946-5.937-4.8-11.548-9.338-15.125-12.914a3.267 3.267 0 0 0-3.42-.765c-2.203.797-3.564 1.412-4.635 1.89-1.635.731-1.731 1.191-3.935 1.413-.466.047-.982.318-1.377.544-.431.247-1.157.935-1.44 1.359-4.623 6.911-9.003 6.343-12.201 5.271-1.02-.34-1.638-1.48-1.737-1.898-.686-2.87 2.76-9.553 7.226-14.02 10.626-10.631 16.362-13.547 27.934-8.375 13.13 5.871 26.032 10.723 26.161 10.769 1.721.595 3.299.285 3.894-1.421.588-1.707-.848-2.449-2.555-3.044-.13-.046-12.13-4.89-25-10.652-14.836-5.76-19.945-3.043-32.88 8.261-4.473 4.472-8.804 10.924-8.533 17.717.675 2.825 2.12 4.837 4.73 6.196 7.244 1.349 11.594-1.094 16.738-6.549 2.08-.32 3.519-.702 5.218-1.467.614-.275 1.926-1.028 2.88-1.413 3.74 3.51 9.412 8.61 14.728 12.907 9.612 7.775 20.482 17.237 22.935 22.337 1.209 2.518.448 6.096-.435 6.848-1.294 1.112-4.04 1.326-5 .652-1.06-.725-2.167-.6-3.26.055-1.099.654-1.765 1.68-1.627 2.948.222 2.08-1.68 3.27-2.504 3.682-2.093 1.06-4.051 2.074-4.869 1.314a3.305 3.305 0 0 0-3.394-.667 3.269 3.269 0 0 0-2.092 2.754c-.196 2.144-1.54 3.132-3.613 3.936-1 .38-2.883.102-4.184-1.087-.811-.732-2.48-1.288-3.533-1.032-1.065.261-1.747 1.147-2.12 2.173-.125.327-.805 1.614-3.75 2.446-2.028.572-6.4-1.449-8.315-2.718-2.663-.87-17.081-12.144-29.51-22.554-1.747-1.471-4.832-4.823-7.5-7.608-2.367-2.473-4.867-4.603-5.98-5.544-1.391-1.177-2.282-2.969-3.438-1.583a3.273 3.273 0 0 0 .386 4.61c1.014.857 2.975 2.93 5.139 5.185 2.917 3.047 5.93 6.2 7.958 7.9 12.176 10.193 26.81 21.199 29.725 23.114 2.407 1.583 7.592 3.806 11.607 3.806 3.224 0 5.702-.74 7.421-2.184 2.303.897 4.919.903 7.436-.078 2.975-1.152 5.42-3.472 6.806-6.285 2.577.55 5.526.164 8.207-1.182 2.623-1.321 4.517-3.342 5.46-5.703 2.603.138 5.283-.784 7.5-2.687 3.754-3.211 4.786-8.206 2.616-12.711"/>
        <path fill="#3896A3" d="M103.156 63.016H73.732c-1.805 0-3.27.987-3.27 2.201 0 1.215 1.465 2.201 3.27 2.201h29.424c1.805 0 3.27-.986 3.27-2.2 0-1.215-1.465-2.202-3.27-2.202M168.946 111.494c-.74-.928-2.22-1.183-3.313-.551l-6.976 3.98c-1.093.625-1.385 1.886-.65 2.814.463.58 1.217.896 1.986.896.453 0 .917-.11 1.326-.345l6.978-3.98c1.093-.625 1.384-1.885.65-2.814M150.372 125.931c-1.917-1.521-10.494-10.368-15.798-15.94a2.657 2.657 0 0 0-3.786-.08 2.71 2.71 0 0 0-.08 3.817c1.375 1.446 13.52 14.2 16.343 16.446a2.652 2.652 0 0 0 1.655.577 2.7 2.7 0 0 0 2.112-1.031 2.712 2.712 0 0 0-.446-3.789M137.486 133.918c-3.322-2.664-11.667-11.556-13.553-13.613a2.774 2.774 0 0 0-3.92-.167 2.79 2.79 0 0 0-.166 3.932c.1.105 10.059 10.888 14.173 14.19.51.406 1.126.606 1.73.606.81 0 1.619-.361 2.168-1.04a2.79 2.79 0 0 0-.432-3.908M124.237 138.756c-3.777-3.342-11.504-11.979-13.015-13.675-1.002-1.123-2.68-1.184-3.745-.133-1.07 1.051-1.121 2.809-.127 3.932 2.173 2.44 9.567 10.672 13.47 14.13a2.57 2.57 0 0 0 1.705.656c.752 0 1.506-.339 2.029-.99.943-1.179.8-2.93-.317-3.92"/>
        <path fill="#3896A3" d="M75.982 57.374c-5.605-5.31-28.014-7.03-34.748-7.429-.929-.045-1.786.262-2.44.884a3.264 3.264 0 0 0-1.026 2.379v58.85a3.27 3.27 0 0 0 3.268 3.27h19.618a3.264 3.264 0 0 0 3.105-2.256c.478-1.464 11.744-36.042 13.229-53.043a3.253 3.253 0 0 0-1.006-2.655"/>
        <path fill="#92DEE8" d="M58.547 112.268h-17.17V53.235c12.922.942 26.868 2.987 31.934 5.256-2.13 16.233-11.774 45.074-14.764 53.777"/>
        <path fill="#3896A3" d="M191.432 56.478c-25.672 0-39.913 6.571-40.509 6.846a3.255 3.255 0 0 0-1.746 2.034 3.294 3.294 0 0 0 .36 2.654c4.04 6.507 16.694 42.64 19.125 51.456a3.273 3.273 0 0 0 3.152 2.399h19.618a3.27 3.27 0 0 0 3.27-3.27v-58.85a3.266 3.266 0 0 0-3.27-3.269"/>
        <path fill="#92DEE8" d="M190.289 118.56l-17.116.289c-3.662-11.28-13.78-40.986-19.813-53.144 5.892-1.892 18.555-5.142 36.929-5.552v58.406z"/>
    </g>
</svg>
