<svg xmlns="http://www.w3.org/2000/svg" width="230" height="159" viewBox="0 0 230 159">
    <g fill="none" fill-rule="evenodd">
        <path fill="#9EA5FF" d="M181.373 5.106l5.907 5.909 1.581-1.58-5.908-5.91z"/>
        <path fill="#9EA5FF" d="M181.373 9.434l1.58 1.581 5.908-5.909-1.581-1.58z"/>
        <path fill="#C5C9FF" d="M15.748 91.339l5.907 5.908 1.582-1.58-5.908-5.909z"/>
        <path fill="#C5C9FF" d="M15.748 95.667l1.581 1.58 5.908-5.908-1.582-1.58z"/>
        <path fill="#9EA5FF" d="M206.934 118.262l5.908 5.908 1.581-1.581-5.908-5.908z"/>
        <path fill="#9EA5FF" d="M206.934 122.59l1.581 1.58 5.908-5.908-1.581-1.58zM15.635 56.892l5.908 5.908 1.581-1.58-5.908-5.908z"/>
        <path fill="#9EA5FF" d="M15.635 61.22l1.581 1.58 5.908-5.908-1.581-1.58zM194.537 58.018l5.908 5.908 1.582-1.58-5.908-5.909z"/>
        <path fill="#9EA5FF" d="M194.537 62.345l1.582 1.58 5.908-5.907-1.582-1.58z"/>
        <path fill="#C5C9FF" d="M207.043 101.033l5.908 5.906 1.58-1.58-5.907-5.909z"/>
        <path fill="#C5C9FF" d="M207.043 105.358l1.58 1.582 5.909-5.907-1.581-1.582zM82.074 11.933l5.908 5.906 1.58-1.58-5.909-5.909z"/>
        <path fill="#C5C9FF" d="M82.074 16.258l1.58 1.582 5.908-5.907-1.58-1.582z"/>
        <path fill="#92DEE8" d="M186.28 79.896l-12.85-3.67a3.135 3.135 0 0 1-2.274-3.015v-5.24h-18.81v5.24c0 1.4-.928 2.629-2.273 3.014l-12.851 3.671a9.405 9.405 0 0 0-6.82 9.043v38.595h50.159c6.926 0 12.54-5.614 12.54-12.539V88.939c0-4.199-2.784-7.89-6.821-9.043"/>
        <path fill="#3896A3" d="M132.09 125.847h48.47c5.984 0 10.854-4.869 10.854-10.852V88.94a7.75 7.75 0 0 0-5.598-7.42l-12.85-3.67a4.842 4.842 0 0 1-3.498-4.638v-3.553h-15.433v3.553a4.843 4.843 0 0 1-3.498 4.636l-12.85 3.672a7.75 7.75 0 0 0-5.598 7.42v36.908zm48.47 3.375h-51.846V88.94c0-4.926 3.308-9.313 8.044-10.665l12.851-3.672a1.454 1.454 0 0 0 1.05-1.39v-6.93h22.185v6.93c0 .642.431 1.214 1.049 1.39l12.85 3.672c4.738 1.352 8.046 5.739 8.046 10.665v26.056c0 7.845-6.383 14.227-14.229 14.227z"/>
        <path fill="#DBF4F7" d="M186.28 79.896l-8.34-2.381c-3.274 5.538-9.29 9.265-16.188 9.265-6.9 0-12.916-3.727-16.19-9.265l-8.34 2.381a9.405 9.405 0 0 0-6.82 9.043v38.595h50.159c6.926 0 12.54-5.614 12.54-12.539V88.939c0-4.199-2.784-7.89-6.821-9.043"/>
        <path fill="#3896A3" d="M132.09 125.847h48.47c5.984 0 10.854-4.869 10.854-10.852V88.94a7.75 7.75 0 0 0-5.598-7.42l-7.13-2.035c-3.797 5.572-10.171 8.984-16.935 8.984-6.763 0-13.137-3.412-16.937-8.984l-7.129 2.035a7.75 7.75 0 0 0-5.596 7.42v36.908zm48.47 3.375h-51.846V88.94c0-4.926 3.308-9.313 8.044-10.665l9.593-2.74.664 1.122c3.076 5.203 8.723 8.436 14.736 8.436 6.014 0 11.66-3.233 14.735-8.436l.663-1.122 9.594 2.74c4.738 1.352 8.046 5.739 8.046 10.665v26.056c0 7.845-6.383 14.227-14.229 14.227z"/>
        <path fill="#DBF4F7" d="M139.806 33.485v2.2c0 2.696.436 5.375 1.288 7.932l4.982 14.95h9.405V24.08h-6.269a9.405 9.405 0 0 0-9.406 9.405"/>
        <path fill="#3896A3" d="M147.292 56.878h6.502v-31.11h-4.583c-4.255 0-7.717 3.461-7.717 7.717v2.2c0 2.519.404 5.008 1.202 7.397l4.596 13.796zm9.877 3.376h-12.31l-5.366-16.104a26.697 26.697 0 0 1-1.374-8.464v-2.201c0-6.116 4.976-11.092 11.092-11.092h7.958v37.86z"/>
        <path fill="#DBF4F7" d="M182.73 39.998l-5.304 18.568-25.08-21.945a6.27 6.27 0 0 1-6.27-6.271c0-5.193 4.21-9.404 9.406-9.404h21.944a6.27 6.27 0 0 1 6.27 6.27v5.892c0 2.33-.325 4.65-.965 6.89"/>
        <path fill="#3896A3" d="M155.482 22.633c-4.256 0-7.719 3.462-7.719 7.718a4.588 4.588 0 0 0 4.584 4.582h.634l23.553 20.61 4.574-16.01c.597-2.09.901-4.253.901-6.425v-5.892a4.588 4.588 0 0 0-4.583-4.583h-21.944zm22.836 38.956L151.68 38.282c-4.078-.34-7.293-3.768-7.293-7.931 0-6.118 4.977-11.093 11.094-11.093h21.944c4.388 0 7.959 3.57 7.959 7.958v5.892c0 2.486-.348 4.96-1.032 7.354l-6.035 21.127z"/>
        <path fill="#92DEE8" d="M161.751 71.105c-10.389 0-18.81-8.421-18.81-18.81v-3.673a6.27 6.27 0 0 1 1.837-4.433l5.685-5.686c1.204-1.203 2.85-1.895 4.55-1.841 10.024.316 18.892 2.463 23.74 7.198 1.19 1.16 1.808 2.78 1.808 4.44v3.995c0 10.389-8.421 18.81-18.81 18.81"/>
        <path fill="#3896A3" d="M154.83 38.346c-1.158 0-2.315.493-3.174 1.352l-5.685 5.685a4.553 4.553 0 0 0-1.342 3.24v3.672c0 9.442 7.682 17.122 17.122 17.122 9.442 0 17.122-7.68 17.122-17.122V48.3c0-1.25-.473-2.427-1.298-3.233-4.158-4.06-11.977-6.383-22.615-6.719l-.13-.002zm6.921 34.446c-11.302 0-20.498-9.195-20.498-20.497v-3.672c0-2.126.828-4.124 2.331-5.627l5.685-5.686c1.488-1.487 3.514-2.34 5.56-2.34l.237.005c8.017.253 18.839 1.79 24.868 7.678 1.47 1.436 2.314 3.495 2.314 5.647v3.995c0 11.302-9.195 20.497-20.497 20.497z"/>
        <path fill="#92DEE8" d="M89.234 90.023l-12.851-3.671a3.135 3.135 0 0 1-2.273-3.014v-5.24H55.3v5.24c0 1.4-.928 2.628-2.273 3.013l-12.852 3.672a9.405 9.405 0 0 0-6.82 9.043v38.595h50.16c6.925 0 12.54-5.615 12.54-12.54V99.067c0-4.2-2.784-7.89-6.821-9.043"/>
        <path fill="#3896A3" d="M35.043 135.973h48.47c5.985 0 10.854-4.868 10.854-10.851V99.066a7.75 7.75 0 0 0-5.597-7.42l-12.85-3.671a4.842 4.842 0 0 1-3.498-4.637v-3.553H56.988v3.553a4.843 4.843 0 0 1-3.498 4.636l-12.85 3.672a7.75 7.75 0 0 0-5.597 7.42v36.907zm48.47 3.376H31.669V99.066c0-4.927 3.308-9.313 8.043-10.666l12.852-3.672a1.454 1.454 0 0 0 1.05-1.39v-6.929h22.184v6.929c0 .643.432 1.215 1.05 1.391l12.85 3.671c4.738 1.353 8.046 5.74 8.046 10.666v26.056c0 7.844-6.384 14.227-14.23 14.227z"/>
        <path fill="#DBF4F7" d="M89.234 90.023l-8.341-2.382c-3.274 5.539-9.289 9.265-16.188 9.265-6.9 0-12.915-3.726-16.19-9.265l-8.34 2.382a9.405 9.405 0 0 0-6.82 9.043v38.595h50.16c6.925 0 12.54-5.615 12.54-12.54V99.067c0-4.2-2.784-7.89-6.821-9.043"/>
        <path fill="#3896A3" d="M35.043 135.973h48.47c5.985 0 10.854-4.868 10.854-10.851V99.066a7.75 7.75 0 0 0-5.597-7.42l-7.13-2.036c-3.798 5.572-10.172 8.984-16.935 8.984-6.763 0-13.138-3.412-16.937-8.984l-7.13 2.036a7.75 7.75 0 0 0-5.595 7.42v36.907zm48.47 3.376H31.669V99.066c0-4.927 3.308-9.313 8.043-10.666l9.594-2.74.664 1.122c3.076 5.204 8.722 8.437 14.736 8.437 6.013 0 11.66-3.233 14.735-8.437l.663-1.122 9.594 2.74c4.738 1.353 8.046 5.74 8.046 10.666v26.056c0 7.844-6.384 14.227-14.23 14.227z"/>
        <path fill="#DBF4F7" d="M42.76 43.612v2.2c0 2.696.435 5.374 1.288 7.931l4.982 14.95h9.405V34.207h-6.27a9.405 9.405 0 0 0-9.405 9.405"/>
        <path fill="#3896A3" d="M50.246 67.005h6.501v-31.11h-4.582c-4.256 0-7.717 3.462-7.717 7.717v2.2c0 2.519.403 5.007 1.201 7.397l4.597 13.796zm9.877 3.375h-12.31l-5.366-16.103a26.696 26.696 0 0 1-1.375-8.465v-2.2c0-6.117 4.977-11.092 11.093-11.092h7.958v37.86z"/>
        <path fill="#DBF4F7" d="M85.684 50.125L80.38 68.693 55.3 46.748a6.27 6.27 0 0 1-6.27-6.271c0-5.194 4.21-9.405 9.405-9.405H80.38a6.27 6.27 0 0 1 6.271 6.27v5.892c0 2.331-.325 4.65-.966 6.89"/>
        <path fill="#3896A3" d="M58.435 32.76c-4.256 0-7.718 3.462-7.718 7.717A4.588 4.588 0 0 0 55.3 45.06h.635l23.553 20.61 4.573-16.01c.598-2.09.902-4.254.902-6.426v-5.892a4.588 4.588 0 0 0-4.584-4.582H58.435zm22.836 38.955L54.634 48.408c-4.077-.34-7.292-3.767-7.292-7.93 0-6.118 4.977-11.094 11.093-11.094H80.38c4.389 0 7.96 3.57 7.96 7.958v5.892c0 2.486-.349 4.96-1.032 7.355L81.27 71.715z"/>
        <path fill="#92DEE8" d="M64.705 81.231c-10.39 0-18.81-8.42-18.81-18.809v-3.673a6.27 6.27 0 0 1 1.836-4.433l5.685-5.686c1.205-1.204 2.851-1.896 4.551-1.842 10.023.317 18.892 2.464 23.74 7.199 1.189 1.16 1.807 2.78 1.807 4.44v3.995c0 10.388-8.42 18.81-18.809 18.81"/>
        <path fill="#3896A3" d="M57.783 48.472c-1.158 0-2.314.493-3.174 1.352l-5.685 5.686a4.553 4.553 0 0 0-1.342 3.24v3.672c0 9.441 7.682 17.121 17.123 17.121s17.121-7.68 17.121-17.121v-3.995c0-1.25-.472-2.427-1.298-3.233-4.157-4.06-11.977-6.383-22.615-6.72l-.13-.002zm6.922 34.447c-11.302 0-20.498-9.195-20.498-20.497v-3.673c0-2.126.828-4.124 2.33-5.626l5.686-5.687c1.488-1.486 3.514-2.34 5.56-2.34l.237.005c8.016.253 18.838 1.79 24.867 7.679 1.471 1.436 2.315 3.494 2.315 5.647v3.995c0 11.302-9.195 20.497-20.497 20.497z"/>
        <path fill="#DBF4F7" d="M138.459 107.463l-12.85-3.671a3.135 3.135 0 0 1-2.274-3.015v-5.24h-18.81v5.24c0 1.4-.928 2.629-2.273 3.014l-12.851 3.672a9.405 9.405 0 0 0-6.82 9.043V155.1h50.159c6.926 0 12.54-5.615 12.54-12.54v-26.055c0-4.2-2.784-7.89-6.821-9.043"/>
        <path fill="#3896A3" d="M84.268 153.413h48.471c5.984 0 10.853-4.868 10.853-10.852v-26.055a7.75 7.75 0 0 0-5.597-7.42l-12.85-3.671a4.842 4.842 0 0 1-3.498-4.638v-3.552h-15.433v3.552a4.843 4.843 0 0 1-3.498 4.637l-12.851 3.671a7.75 7.75 0 0 0-5.597 7.42v36.908zm48.471 3.375H80.893v-40.282c0-4.927 3.308-9.313 8.044-10.666l12.851-3.672a1.454 1.454 0 0 0 1.05-1.39v-6.929h22.185v6.928c0 .644.431 1.216 1.049 1.392l12.85 3.67c4.738 1.354 8.046 5.74 8.046 10.667v26.055c0 7.845-6.383 14.227-14.229 14.227z"/>
        <path fill="#92DEE8" d="M138.459 107.463l-8.341-2.382c-3.273 5.538-9.289 9.265-16.187 9.265-6.9 0-12.916-3.727-16.19-9.265l-8.34 2.382a9.405 9.405 0 0 0-6.82 9.043V155.1h50.159c6.926 0 12.54-5.615 12.54-12.54v-26.055c0-4.2-2.784-7.89-6.821-9.043"/>
        <path fill="#3896A3" d="M84.268 153.413h48.471c5.984 0 10.853-4.868 10.853-10.852v-26.055a7.75 7.75 0 0 0-5.597-7.42l-7.13-2.036c-3.797 5.572-10.171 8.984-16.935 8.984-6.763 0-13.138-3.412-16.937-8.984l-7.129 2.035a7.75 7.75 0 0 0-5.596 7.42v36.908zm48.471 3.375H80.893v-40.282c0-4.927 3.308-9.313 8.044-10.666l9.593-2.74.664 1.122c3.076 5.204 8.722 8.436 14.736 8.436 6.013 0 11.66-3.232 14.735-8.436l.663-1.122 9.594 2.74c4.738 1.353 8.046 5.74 8.046 10.666v26.055c0 7.845-6.383 14.227-14.229 14.227z"/>
        <path fill="#92DEE8" d="M91.985 61.051v2.2c0 2.697.436 5.375 1.288 7.932l4.982 14.95h9.405V51.645h-6.269a9.405 9.405 0 0 0-9.406 9.405"/>
        <path fill="#3896A3" d="M99.471 84.444h6.502v-31.11h-4.583c-4.255 0-7.717 3.462-7.717 7.717v2.201c0 2.518.403 5.007 1.202 7.397l4.596 13.795zm9.877 3.376h-12.31l-5.366-16.104a26.696 26.696 0 0 1-1.374-8.464v-2.2c0-6.117 4.976-11.093 11.092-11.093h7.958V87.82z"/>
        <path fill="#92DEE8" d="M134.91 67.564l-5.305 18.568-25.08-21.945a6.27 6.27 0 0 1-6.27-6.27c0-5.194 4.21-9.405 9.406-9.405h21.944a6.27 6.27 0 0 1 6.27 6.27v5.892c0 2.33-.325 4.65-.965 6.89"/>
        <path fill="#3896A3" d="M107.66 50.2c-4.255 0-7.718 3.462-7.718 7.717a4.588 4.588 0 0 0 4.583 4.582h.635l23.553 20.61 4.574-16.009c.597-2.091.9-4.254.9-6.426v-5.892a4.588 4.588 0 0 0-4.582-4.582H107.66zm22.837 38.955L103.86 65.848c-4.078-.34-7.293-3.767-7.293-7.931 0-6.117 4.977-11.093 11.094-11.093h21.944c4.388 0 7.958 3.57 7.958 7.958v5.892c0 2.486-.347 4.96-1.03 7.354l-6.036 21.127z"/>
        <path fill="#DBF4F7" d="M113.93 98.671c-10.389 0-18.81-8.421-18.81-18.81v-3.673a6.27 6.27 0 0 1 1.836-4.433l5.686-5.686c1.204-1.203 2.85-1.895 4.55-1.841 10.024.316 18.892 2.463 23.74 7.198 1.189 1.16 1.808 2.78 1.808 4.44v3.996c0 10.388-8.422 18.809-18.81 18.809"/>
        <path fill="#3896A3" d="M107.009 65.912c-1.158 0-2.315.493-3.174 1.352l-5.685 5.685a4.553 4.553 0 0 0-1.342 3.24v3.672c0 9.442 7.682 17.122 17.122 17.122 9.442 0 17.122-7.68 17.122-17.122v-3.995c0-1.25-.473-2.427-1.298-3.232-4.158-4.06-11.977-6.384-22.615-6.72l-.13-.002zm6.921 34.446c-11.302 0-20.498-9.194-20.498-20.497V76.19c0-2.126.828-4.124 2.331-5.626l5.685-5.687c1.488-1.486 3.514-2.34 5.56-2.34l.237.005c8.017.253 18.839 1.79 24.867 7.678 1.471 1.437 2.315 3.495 2.315 5.647v3.995c0 11.303-9.195 20.497-20.497 20.497z"/>
        <path fill="#92DEE8" d="M95.12 125.847c0-2.495-.99-4.887-2.754-6.651l-8.07-8.07a9.371 9.371 0 0 0-1.715 5.38V155.1h12.54v-29.254z"/>
        <path fill="#3896A3" d="M84.268 153.413h9.164v-27.566c0-2.062-.802-4-2.259-5.458l-6.454-6.452a7.559 7.559 0 0 0-.45 2.569v36.907zm12.54 3.375H80.893v-40.282c0-2.264.698-4.458 2.02-6.347l1.153-1.649 9.493 9.493a11.02 11.02 0 0 1 3.249 7.844v30.941z"/>
        <path fill="#92DEE8" d="M143.565 111.126l-8.07 8.07a9.401 9.401 0 0 0-2.754 6.65v13.58a3.135 3.135 0 0 1-3.135 3.135h-12.54v12.54h15.675c6.925 0 12.539-5.615 12.539-12.54v-26.056a9.38 9.38 0 0 0-1.715-5.379"/>
        <path fill="#3896A3" d="M118.754 153.413h13.986c5.984 0 10.853-4.868 10.853-10.852v-26.055c0-.879-.154-1.745-.453-2.568l-6.452 6.452a7.667 7.667 0 0 0-2.26 5.457v13.579a4.829 4.829 0 0 1-4.823 4.823h-10.851v9.164zm13.986 3.375h-17.362v-15.914h14.227a1.45 1.45 0 0 0 1.447-1.448v-13.58c0-2.962 1.154-5.748 3.25-7.842l9.494-9.495 1.153 1.65c1.32 1.892 2.02 4.086 2.02 6.347v26.055c0 7.845-6.384 14.227-14.229 14.227z"/>
    </g>
</svg>
