<svg xmlns="http://www.w3.org/2000/svg" xmlns:xlink="http://www.w3.org/1999/xlink" width="162" height="157" viewBox="0 0 162 157">
    <defs>
        <path id="a" d="M0 156h161.564V.846H0z"/>
    </defs>
    <g fill="none" fill-rule="evenodd">
        <path fill="#DBF4F7" d="M16.875 21.9h143.316V3.002H16.875z"/>
        <g transform="translate(0 .154)">
            <path fill="#92DEE8" d="M102.438 75.531V58.935l-14.374-8.299-14.372 8.3V75.53l14.373 8.3 14.373-8.3zm16.448-1.186h-5.748a25.808 25.808 0 0 1-2.308 5.594l4.058 4.06-10.059 10.06L100.77 90a25.776 25.776 0 0 1-5.593 2.306V126.054c4.25 2.461 7.114 7.045 7.114 12.31 0 2.603-.733 5.016-1.955 7.111h-7.528v-9.116l-4.743-2.738-4.741 2.738v9.116h-7.531c-1.22-2.095-1.954-4.508-1.954-7.112 0-5.264 2.866-9.848 7.114-12.309V92.306A25.846 25.846 0 0 1 75.358 90l-4.06 4.058-10.059-10.06 4.06-4.059a25.805 25.805 0 0 1-2.307-5.594h-5.75V60.121h5.75a25.825 25.825 0 0 1 2.307-5.594l-4.06-4.058L71.3 40.41l4.058 4.06c1.75-.98 3.627-1.75 5.594-2.307v-5.75h14.226v5.75a25.726 25.726 0 0 1 5.592 2.306l4.06-4.06 10.06 10.061-4.058 4.058c.98 1.75 1.75 3.626 2.306 5.594h5.75v14.224z"/>
            <mask id="b" fill="#fff">
                <use xlink:href="#a"/>
            </mask>
            <path fill="#3896A3" d="M19.307 19.815h137.516V5.59H19.307v14.225zM14.564.846v109.065h66.387v-4.741H19.307V24.557h137.515v80.613H95.177v4.741h66.387V.846h-147z" mask="url(#b)"/>
            <path fill="#4AC8D9" d="M26.42 10.33a2.37 2.37 0 1 1-.002 4.742 2.37 2.37 0 0 1 .002-4.742M35.902 10.33a2.372 2.372 0 1 1 0 4.744 2.372 2.372 0 0 1 0-4.744" mask="url(#b)"/>
            <path fill="#9EA5FF" d="M45.387 10.33a2.371 2.371 0 1 1 0 4.742 2.371 2.371 0 0 1 0-4.742" mask="url(#b)"/>
            <path fill="#3896A3" d="M100.066 74.164l-12.002 6.931-12.004-6.93v-13.86l12.004-6.932 12.002 6.932v13.86zm4.742-16.598L88.064 47.9l-16.746 9.666V76.9l16.746 9.666 16.744-9.666V57.566z" mask="url(#b)"/>
            <path fill="#92DEE8" d="M54.493 111.682l-9.106 5.258-9.108-5.258v-10.516l9.108-5.257 9.106 5.257v10.516zm10.423-.751v-9.013h-3.643a16.395 16.395 0 0 0-1.462-3.545l2.572-2.571-6.374-6.375-2.573 2.572a16.372 16.372 0 0 0-3.544-1.461v-3.643H40.88v3.643a16.434 16.434 0 0 0-3.544 1.46l-2.57-2.571-6.376 6.375 2.573 2.57a16.445 16.445 0 0 0-1.462 3.546h-3.644v9.013H29.5a16.395 16.395 0 0 0 1.462 3.544l-2.573 2.572 6.375 6.374 2.571-2.571a16.434 16.434 0 0 0 3.544 1.46v21.384a9.002 9.002 0 0 0-4.506 7.8c0 1.649.465 3.178 1.237 4.506h4.772v-5.776l3.005-1.735 3.004 1.735V156h4.771a8.919 8.919 0 0 0 1.238-4.506c0-3.335-1.815-6.24-4.508-7.8v-21.383a16.372 16.372 0 0 0 3.544-1.461l2.573 2.57 6.374-6.373-2.572-2.572a16.345 16.345 0 0 0 1.462-3.544h3.643z" mask="url(#b)"/>
            <path fill="#FFF" d="M52.991 110.815l-7.604 4.392-7.606-4.392v-8.78l7.606-4.394 7.604 4.393z" mask="url(#b)"/>
            <path fill="#3896A3" d="M52.991 110.815l-7.604 4.392-7.606-4.392v-8.78l7.606-4.394 7.604 4.393v8.781zm3.005-10.517l-10.609-6.125-10.612 6.125v12.25l10.612 6.125 10.61-6.125v-12.25z" mask="url(#b)"/>
            <path fill="#9EA5FF" d="M129.5 33.059v4.373h-4.372v4.37h4.372v4.37h4.371v-4.37h4.371v-4.37h-4.371v-4.373z" mask="url(#b)"/>
            <path fill="#C5C9FF" d="M138.242 48.36v4.37h-4.37v4.371h4.37v4.371h4.371v-4.37h4.371V52.73h-4.37v-4.37z" mask="url(#b)"/>
            <path fill="#9EA5FF" d="M50.815 43.988v-4.373h4.371v-4.37h-4.37v-4.37h-4.373v4.37h-4.37v4.37h4.37v4.373z" mask="url(#b)"/>
            <path fill="#C5C9FF" d="M35.516 68.03v-4.37h4.37v-4.373h-4.37v-4.37h-4.371v4.37h-4.372v4.372h4.372v4.37z" mask="url(#b)"/>
            <path fill="#9EA5FF" d="M5.857 108.886L0 103.03l1.568-1.57 5.857 5.858z" mask="url(#b)"/>
            <path fill="#9EA5FF" d="M1.568 108.886L0 107.318l5.857-5.857 1.568 1.569z" mask="url(#b)"/>
            <path fill="#C5C9FF" d="M5.857 91.035L0 85.18l1.568-1.568 5.857 5.858z" mask="url(#b)"/>
            <path fill="#C5C9FF" d="M1.568 91.035L0 89.47l5.857-5.858 1.568 1.568z" mask="url(#b)"/>
            <path fill="#9EA5FF" d="M120.302 143.008l-5.857-5.857 1.568-1.567 5.856 5.858z" mask="url(#b)"/>
            <path fill="#9EA5FF" d="M116.013 143.008l-1.568-1.566 5.857-5.858 1.567 1.567z" mask="url(#b)"/>
            <path fill="#777CBF" d="M120.302 125.16l-5.857-5.857 1.568-1.568 5.856 5.857z" mask="url(#b)"/>
            <path fill="#777CBF" d="M116.013 125.16l-1.568-1.568 5.857-5.857 1.567 1.568z" mask="url(#b)"/>
        </g>
    </g>
</svg>
