<svg xmlns="http://www.w3.org/2000/svg" xmlns:xlink="http://www.w3.org/1999/xlink" width="467" height="303" viewBox="0 0 467 303">
    <defs>
        <path id="a" d="M0 302h466.806V.89H0z"/>
    </defs>
    <g fill="none" fill-rule="evenodd">
        <path fill="#92DEE8" d="M354.432 254.54h33.637v-3.495h-33.637zM393.312 254.54h14.854v-3.495h-14.854z"/>
        <g transform="translate(0 .11)">
            <path fill="#92DEE8" d="M207.765 137.842c-7.462 0-13.349 2.822-17.033 7.962-1.645 2.295-2.853 5.05-3.56 8.227l-.087-.146-2.403-4.09c-.82-3.18-7.917-34.675 29.092-46.108.084-.023 8.434-2.283 18.658-2.283 13.022 0 23.205 3.704 29.445 10.71 6.574 7.383 9.051 18.5 7.362 33.044a15.193 15.193 0 0 1-.706 3.198c-.736 2.13-1.958 3.735-3.647 4.822-1.738 1.119-3.97 1.69-6.704 1.69-9.468 0-23.089-6.596-33.035-11.412l-.145-.07c-.934-.451-1.843-.898-2.717-1.327-4.104-2.013-7.069-3.467-8.833-3.776-1.724-.301-3.53-.441-5.687-.441z"/>
            <path fill="#FFF" d="M191.922 110.46c16.52-13.98 47.274-18.784 66.264-7.771.005.001 22.409 12.996 15.593 46.448-.031.152 2.845-2.086 3.203-3.017 2.26-5.89.753-14.524-.461-20.538-1.322-6.542-3.746-13.18-8.23-18.241-7.16-8.086-18.39-12.458-28.938-13.58-5.696-.607-12.273-.668-17.906.515-13.051 2.743-27.036 7.879-35.608 18.647-5.202 6.534-7.35 14.685-7.982 22.881-.2 2.562-1.648 18.878 1.957 19.598 1.52.304 2.73 1.545 2.03-1.712-3.106-14.467-2.058-32.959 10.078-43.23"/>
            <path fill="#DBF4F7" d="M225.378 208.768h4.862c2.288 0 4.553.173 6.719-.252 1.239-.244 2.482-.183 3.67-.556 14.073-4.406 24.37-17.528 24.37-33.034v-17.627c-2 .797-4.22 1.216-6.755 1.216-10.306 0-24.42-6.806-34.683-11.776l-.141-.071c-.94-.454-1.846-.903-2.725-1.335-3.395-1.665-6.587-3.24-7.84-3.457-1.51-.263-3.017-.387-4.956-.387-9.196 0-15.9 4.609-16.9 13.327v20.11c0 15.948 10.703 29.387 25.395 33.402 1.192.325 2.183.208 3.422.406 1.784.284 3.7.034 5.562.034M226.108 213.87c-2.431.056-5.108.193-6.108.385V228.538c0 5.472 4.28 7.964 8.5 7.964 4.219 0 8.5-2.492 8.5-7.964v-14.293c-2-.187-5-.32-6-.376v-.065l-4.892.066z"/>
            <path fill="#92DEE8" d="M241 218.352v10.187c0 7.623-6.334 11.61-12.5 11.61s-12.5-3.987-12.5-11.61v-10.16c-14 2.086-24.948 7.844-33.452 17.218-19.258 21.229-18.874 54.922-18.506 62.754l64.934-.038 63.72.038c.468-7.745 1.488-41.2-17.513-62.433C266.585 226.31 254 220.436 241 218.352"/>
            <path fill="#3896A3" d="M292.72 298.35l-63.696-.037-64.886.038c-.368-7.832-.848-41.525 18.41-62.754C191.053 226.223 202 220.465 216 218.38v10.158c0 7.624 6.334 11.61 12.5 11.61s12.5-3.986 12.5-11.61v-10.186c13 2.084 25.597 7.958 34.195 17.566 19 21.233 17.993 54.688 17.525 62.433M237 214.245v14.293c0 5.472-4.28 7.964-8.5 7.964s-8.5-2.492-8.5-7.964V214.255c1-.191 3.677-.33 6.108-.384l4.892-.067v.066c1 .054 4 .189 6 .375m-20.606-5.917C201.702 204.313 191 190.874 191 174.926v-20.11c1-8.718 7.703-13.327 16.899-13.327 1.94 0 3.482.124 4.992.387 1.254.218 4.428 1.792 7.823 3.457.879.432 1.777.88 2.717 1.335l.136.07c10.264 4.97 24.373 11.777 34.68 11.777 2.536 0 4.753-.42 6.753-1.216v17.627c0 15.506-10.298 28.665-24.37 33.07-1.19.375-2.434.276-3.673.52-2.166.425-4.43.252-6.716.252h-4.863c-1.862 0-3.778.25-5.561-.034-1.24-.198-2.231-.081-3.423-.406m-29.223-54.296l-.085-.147-2.403-4.09c-.822-3.18-7.917-34.674 29.092-46.108.083-.023 8.433-2.283 18.657-2.283 13.023 0 23.205 3.704 29.446 10.71 6.573 7.383 9.05 18.5 7.362 33.045a15.134 15.134 0 0 1-.707 3.197c-.736 2.13-1.958 3.735-3.647 4.822-1.738 1.119-3.97 1.69-6.704 1.69-9.467 0-23.088-6.596-33.034-11.412l-.145-.07c-.934-.451-1.844-.897-2.718-1.327-4.104-2.013-7.07-3.467-8.833-3.775-1.724-.302-3.531-.442-5.687-.442-7.462 0-13.35 2.822-17.032 7.962-1.646 2.295-2.853 5.05-3.562 8.228m-7.357 1.37c-3.605-.72-2.156-17.035-1.957-19.598.633-8.195 2.78-16.347 7.982-22.881 8.572-10.767 22.557-15.904 35.609-18.646 5.632-1.184 12.209-1.122 17.905-.516 10.548 1.122 21.779 5.494 28.939 13.58 4.483 5.062 6.907 11.699 8.229 18.24 1.215 6.015 2.72 14.649.46 20.54-.357.93-3.233 3.168-3.202 3.016 6.816-33.452-15.588-46.446-15.593-46.448-18.99-11.013-49.742-6.21-66.264 7.77-12.136 10.273-13.183 28.764-10.077 43.232.699 3.257-.511 2.015-2.031 1.712m89.226 34.146c-.233 3.793-2.338 5.55-6.973 5.592 2.02-4.167 3.64-8.115 4.41-12.357.162-.887.464-1.764 1.65-1.684 1.499.103.888 1.293.918 2.013.085 2.142.128 4.299-.005 6.436M241 214.666v-2.876c7-2.255 14.799-7.073 19.773-13.51.755-.26 1.484-.39 2.448-.41 5.57-.117 8.859-3.751 9.023-9.39.064-2.277-.038-4.557 0-6.833.012-.715-.33-1.882.436-2.047 4.253-.917 6.159-5.274 9.915-6.844 2.448-1.023 3.783-2.705 3.707-5.49-.061-2.275-.091-4.558.005-6.831.124-2.964-1.317-4.662-3.877-5.774-1.567-.682-2.822-1.576-3.741-2.708 6.228-8.016.646-34.008.646-34.008-.692-4.76-3.651-10.43-6.506-14.234-10.1-13.458-28.823-15.426-44.368-14.612-6.641.349-13.962 2.183-20.21 4.397-19.808 7.022-34.273 24.1-33.986 45.604.047 3.472-.28 7.019.246 10.457.186 1.225.489 2.947.489 4.119v.125c0 .342-.83.652-1.504.903-1.765.656-3.087 1.798-3.358 3.613-.54 3.618-.61 7.337.124 10.93.552 2.689 3.038 3.46 5.348 4.166.302.092.572.489.769.797 2.444 3.84 6.274 5.268 10.405 5.819.243.032.332.073.526.124 2.142 15.619 13.69 28.263 28.69 31.96v2.575c-15 2.134-26.947 8.309-36.154 18.459-22.857 25.197-19.457 65.489-19.305 67.192l.182 1.66 68.285-.04 67.039.04.205-1.633c.176-1.69 4.24-41.63-18.33-66.866-9.3-10.4-22.922-16.7-36.922-18.834"/>
            <path fill="#3896A3" d="M262.577 195.768H233.6c-.421-1-1.196-1-2.094-1h-6.078c-1.343 0-2.432.657-2.432 2s1.089 2 2.432 2h6.078c.898 0 1.673 0 2.094-1h28.977c.672 0 1.216-.328 1.216-1 0-.672-.544-1-1.216-1"/>
            <path stroke="#3896A3" stroke-linecap="round" stroke-width="4" d="M2 299.768h447"/>
            <path fill="#DBF4F7" d="M149.417 279.955H71.83v-52.65h38.794v-18.012l20.646 18.012h18.148z"/>
            <mask id="b" fill="#fff">
                <use xlink:href="#a"/>
            </mask>
            <path fill="#3896A3" d="M110.622 264.713h26.325v-5.542h-26.325zM82.912 264.713h19.397v-5.542H82.912zM82.911 246.703h54.036v-5.542H82.911z" mask="url(#b)"/>
            <path fill="#92DEE8" d="M45.978 119.751h71.293V72.556H45.978z" mask="url(#b)"/>
            <path fill="#F1F2F2" d="M45.978 130.796h71.293v-11.045H45.978z" mask="url(#b)"/>
            <path fill="#3896A3" d="M47.985 128.789h67.277v-7.028H47.985v7.028zm69.286 4.016H45.977a2.008 2.008 0 0 1-2.008-2.009v-11.045c0-1.108.899-2.008 2.008-2.008h71.294c1.108 0 2.008.9 2.008 2.008v11.045c0 1.11-.9 2.009-2.008 2.009zM76.101 94.3v7.729l8.212-3.866-8.212-3.863zm-2.009 12.899c-.375 0-.749-.105-1.075-.31a2.017 2.017 0 0 1-.933-1.697V91.134a2.012 2.012 0 0 1 2.863-1.818l14.937 7.03a2.007 2.007 0 0 1 0 3.635l-14.937 7.029a2 2 0 0 1-.855.189zM45.978 74.564h71.293v-4.015H45.978z" mask="url(#b)"/>
            <path fill="#231F20" d="M169.222 27.45l-.9-3.916 23.983-5.523.901 3.915z" mask="url(#b)"/>
            <path fill="#92DEE8" d="M183.719 48.913v-5.989c1.003-.346 2.299-.795 3.327-1.346l4.279 4.236a1.048 1.048 0 0 0 1.474 0l6.08-6.068a1.027 1.027 0 0 0 .006-1.453l-4.236-4.136a21.549 21.549 0 0 0 1.347-3.143h5.992c.567 0 .809-.663.809-1.232V21.2c0-.567-.242-1.23-.81-1.23h-5.991a21.923 21.923 0 0 0-1.343-3.142l4.236-4.186a1 1 0 0 0 0-1.429l-6.071-6.055a1.023 1.023 0 0 0-1.453.006l-4.32 4.237c-1.027-.545-2.323-.995-3.326-1.342v-5.99c0-.566-.293-1.178-.861-1.178h-8.584c-.566 0-.597.612-.597 1.178v5.99c-2.008.347-2.433.8-3.456 1.347l-4.346-4.235c-.4-.403-1.107-.403-1.508 0l-6.098 6.07a1.029 1.029 0 0 0-.013 1.452l4.233 4.135a21.911 21.911 0 0 0-1.355 3.141h-5.99c-.566 0-.546.664-.546 1.231v8.583c0 .57-.02 1.232.547 1.232h5.989a21.667 21.667 0 0 0 1.348 3.143l-4.241 4.188a.996.996 0 0 0 0 1.426l6.073 6.056c.4.403 1.053.398 1.454-.006l4.453-4.24c1.023.55 1.448.997 3.456 1.343v5.99c0 .566.03 1.18.597 1.18h8.584c.568 0 .86-.614.86-1.18" mask="url(#b)"/>
            <path fill="#F1F2F2" d="M178.344 33.477a7.7 7.7 0 0 1-7.699-7.701 7.701 7.701 0 1 1 15.401 0 7.7 7.7 0 0 1-7.702 7.7" mask="url(#b)"/>
            <path fill="#3896A3" d="M178.344 20.082a5.698 5.698 0 0 0-5.688 5.693 5.697 5.697 0 0 0 5.688 5.694 5.7 5.7 0 0 0 5.695-5.694 5.701 5.701 0 0 0-5.695-5.693m0 15.404c-5.353 0-9.706-4.356-9.706-9.711s4.353-9.711 9.706-9.711c5.354 0 9.711 4.356 9.711 9.711s-4.357 9.711-9.71 9.711" mask="url(#b)"/>
            <path fill="#C5C9FF" d="M347.911 275.803L337.3 265.196l2.84-2.84 10.611 10.609z" mask="url(#b)"/>
            <path fill="#C5C9FF" d="M340.139 275.803l-2.84-2.838 10.612-10.61 2.84 2.84z" mask="url(#b)"/>
            <path fill="#777CBF" d="M153.303 79.327l-10.611-10.61 2.84-2.84 10.61 10.612z" mask="url(#b)"/>
            <path fill="#777CBF" d="M145.532 79.327l-2.84-2.838 10.61-10.612 2.84 2.84z" mask="url(#b)"/>
            <path fill="#C5C9FF" d="M95.059 182.745l-10.612-10.609 2.84-2.84 10.61 10.61z" mask="url(#b)"/>
            <path fill="#C5C9FF" d="M87.287 182.745l-2.84-2.839 10.612-10.61 2.839 2.84zM163.133 224.182l-10.61-10.612 2.84-2.84 10.611 10.61z" mask="url(#b)"/>
            <path fill="#C5C9FF" d="M155.364 224.182l-2.841-2.841 10.61-10.61 2.84 2.839zM299.284 211.417l-10.612-10.61 2.84-2.84 10.612 10.612z" mask="url(#b)"/>
            <path fill="#C5C9FF" d="M291.512 211.417l-2.84-2.838 10.612-10.612 2.84 2.84zM229.384 73.599l-10.609-10.611 2.84-2.841 10.61 10.612z" mask="url(#b)"/>
            <path fill="#C5C9FF" d="M221.614 73.599l-2.839-2.84 10.61-10.612 2.84 2.84z" mask="url(#b)"/>
            <path stroke="#3896A3" stroke-linecap="round" stroke-width="4" d="M11 201.768h29M35 211.768h20M30 190.768h20M276 45.768h19M291 26.768h14M291 55.768h34" mask="url(#b)"/>
            <path fill="#DBF4F7" d="M386.5 73.8c-43.523 0-78.806 25.383-78.806 56.694 0 15.138 8.262 28.878 21.699 39.046 2.072 7.355 2.625 15.82-4.69 18.046-10.437 3.175 20.482 5.247 38.528-2.911 7.355 1.632 15.168 2.515 23.269 2.515 43.523 0 78.806-25.384 78.806-56.696 0-31.311-35.283-56.694-78.806-56.694" mask="url(#b)"/>
            <path stroke="#3896A3" stroke-width="3" d="M386.5 73.8c-43.523 0-78.806 25.383-78.806 56.694 0 15.138 8.262 28.878 21.699 39.046 2.072 7.355 2.625 15.82-4.69 18.046-10.437 3.175 20.482 5.247 38.528-2.911 7.355 1.632 15.168 2.515 23.269 2.515 43.523 0 78.806-25.384 78.806-56.696 0-31.311-35.283-56.694-78.806-56.694z" mask="url(#b)"/>
            <path fill="#3896A3" d="M336.885 106.264c0-.971.408-1.44 1.32-1.643l.143.42c-.599.215-.839.528-.803 1.043h.431v1.26h-1.09v-1.08zm-2.399 0c0-.971.408-1.44 1.32-1.643l.143.42c-.599.215-.839.528-.803 1.043h.444v1.26h-1.104v-1.08zM339.778 108.902v-.023c0-2.375 1.775-4.342 4.246-4.342 1.523 0 2.435.54 3.274 1.331l-.647.696c-.708-.672-1.5-1.152-2.639-1.152-1.859 0-3.25 1.511-3.25 3.442v.025c0 1.942 1.403 3.465 3.25 3.465 1.151 0 1.907-.444 2.71-1.212l.624.613c-.876.887-1.835 1.475-3.358 1.475-2.423 0-4.21-1.908-4.21-4.318M348.754 110.726v-3.851h.923v3.623c0 1.15.624 1.872 1.716 1.872 1.055 0 1.86-.781 1.86-1.944v-3.551h.91v6.202h-.91v-1.08c-.42.67-1.057 1.21-2.124 1.21-1.5 0-2.375-1.005-2.375-2.481M360.332 110.797v-.575a6.37 6.37 0 0 0-1.811-.264c-1.151 0-1.811.503-1.811 1.247v.024c0 .78.72 1.236 1.559 1.236 1.14 0 2.063-.684 2.063-1.668m-4.558.48v-.024c0-1.331 1.08-2.026 2.651-2.026a6.49 6.49 0 0 1 1.895.263v-.191c0-1.104-.672-1.68-1.835-1.68-.732 0-1.307.18-1.883.444l-.276-.756c.684-.311 1.343-.528 2.255-.528.876 0 1.559.24 2.003.684.432.432.647 1.03.647 1.823v3.79h-.911v-.924c-.432.553-1.139 1.056-2.231 1.056-1.163 0-2.315-.66-2.315-1.931M363.19 106.875h.924v1.08c.408-.672 1.055-1.211 2.122-1.211 1.5 0 2.375 1.007 2.375 2.483v3.849h-.923v-3.622c0-1.151-.624-1.871-1.715-1.871-1.068 0-1.86.78-1.86 1.943v3.55h-.923v-6.201zM375.596 109.982v-.024c0-1.427-1.092-2.387-2.243-2.387-1.2 0-2.183.888-2.183 2.387v.024c0 1.463 1.008 2.398 2.183 2.398 1.15 0 2.243-.97 2.243-2.398m-5.373.012v-.025c0-2.026 1.475-3.225 2.962-3.225 1.15 0 1.895.623 2.375 1.318v-3.742h.923v8.756h-.923v-1.247c-.504.743-1.235 1.38-2.375 1.38-1.487 0-2.962-1.176-2.962-3.215M383.683 110.006v-.023c0-1.332-.996-2.424-2.303-2.424-1.343 0-2.266 1.092-2.266 2.399v.025c0 1.33.983 2.41 2.29 2.41 1.343 0 2.28-1.08 2.28-2.387m-5.518 0v-.023c0-1.752 1.367-3.24 3.238-3.24 1.86 0 3.227 1.464 3.227 3.215v.025a3.22 3.22 0 0 1-3.25 3.238c-1.86 0-3.215-1.464-3.215-3.215M394.915 109.982v-.024c0-1.427-1.092-2.387-2.243-2.387-1.199 0-2.183.888-2.183 2.387v.024c0 1.463 1.008 2.398 2.183 2.398 1.151 0 2.243-.97 2.243-2.398m-5.373.012v-.025c0-2.026 1.475-3.225 2.962-3.225 1.151 0 1.895.623 2.375 1.318v-3.742h.923v8.756h-.923v-1.247c-.504.743-1.235 1.38-2.375 1.38-1.487 0-2.962-1.176-2.962-3.215M402.415 109.61c-.108-1.128-.756-2.087-1.979-2.087-1.067 0-1.883.887-2.015 2.086h3.994zm-1.811 2.806c.852 0 1.451-.348 1.955-.875l.575.515c-.623.696-1.379 1.164-2.554 1.164-1.703 0-3.095-1.308-3.095-3.238 0-1.8 1.26-3.238 2.975-3.238 1.835 0 2.89 1.463 2.89 3.285 0 .084 0 .181-.012.324h-4.917c.132 1.308 1.091 2.063 2.183 2.063zM404.457 112.285l.469-.66c.672.504 1.415.791 2.147.791.743 0 1.283-.383 1.283-.983v-.024c0-.624-.731-.864-1.548-1.09-.971-.277-2.05-.613-2.05-1.753v-.023c0-1.069.887-1.776 2.11-1.776.757 0 1.596.264 2.231.684l-.42.695c-.575-.37-1.236-.599-1.834-.599-.733 0-1.2.384-1.2.9v.024c0 .587.768.815 1.596 1.067.959.288 1.99.66 1.99 1.774v.025c0 1.176-.971 1.86-2.207 1.86a4.276 4.276 0 0 1-2.567-.912M416.263 109.994v-.024c0-1.463-1.008-2.399-2.183-2.399-1.151 0-2.243.972-2.243 2.387v.024c0 1.44 1.092 2.4 2.243 2.4 1.199 0 2.183-.889 2.183-2.388zm-5.313-3.119h.923v1.248c.504-.744 1.236-1.379 2.375-1.379 1.487 0 2.962 1.175 2.962 3.214v.024c0 2.027-1.463 3.226-2.962 3.226-1.152 0-1.895-.624-2.375-1.319v3.106h-.923v-8.12zM423.463 109.61c-.108-1.128-.756-2.087-1.98-2.087-1.066 0-1.882.887-2.014 2.086h3.994zm-1.811 2.806c.852 0 1.45-.348 1.955-.875l.575.515c-.623.696-1.38 1.164-2.554 1.164-1.703 0-3.095-1.308-3.095-3.238 0-1.8 1.26-3.238 2.975-3.238 1.835 0 2.89 1.463 2.89 3.285 0 .084 0 .181-.012.324h-4.917c.132 1.308 1.09 2.063 2.183 2.063zM426.021 106.875h.924v1.619c.455-1.031 1.355-1.774 2.53-1.726v.996h-.072c-1.355 0-2.458.97-2.458 2.841v2.471h-.924v-6.201zM431.205 111.434v-3.742h-.864v-.817h.864v-1.871h.923v1.87h1.967v.818h-1.967v3.62c0 .757.42 1.033 1.044 1.033.311 0 .575-.06.9-.216v.79a2.323 2.323 0 0 1-1.116.265c-.996 0-1.75-.491-1.75-1.75M439.147 104.201l.959.443-1.368 1.295h-.719l1.127-1.738zm1.535 5.805v-.024c0-1.332-.995-2.424-2.304-2.424-1.342 0-2.265 1.092-2.265 2.4v.024c0 1.33.983 2.41 2.29 2.41 1.344 0 2.279-1.08 2.279-2.386zm-5.518 0v-.024c0-1.752 1.369-3.238 3.238-3.238 1.86 0 3.228 1.463 3.228 3.214v.024a3.22 3.22 0 0 1-3.252 3.24c-1.857 0-3.214-1.465-3.214-3.216zM442.581 114.12c.6-.216.852-.528.804-1.044h-.432v-1.26h1.103v1.08c0 .971-.42 1.44-1.33 1.643l-.145-.42zM339.2 124.01c-.108-1.127-.756-2.086-1.979-2.086-1.067 0-1.883.887-2.015 2.086h3.994zm-1.81 2.807c.851 0 1.45-.348 1.954-.875l.575.515c-.623.696-1.379 1.164-2.554 1.164-1.703 0-3.095-1.308-3.095-3.238 0-1.8 1.26-3.238 2.975-3.238 1.835 0 2.89 1.463 2.89 3.285 0 .084 0 .18-.012.324h-4.917c.132 1.308 1.091 2.063 2.183 2.063zM341.842 127.477h.924v-8.756h-.924zM353.527 124.383v-.024c0-1.427-1.092-2.387-2.243-2.387-1.199 0-2.183.888-2.183 2.387v.024c0 1.463 1.008 2.398 2.183 2.398 1.151 0 2.243-.971 2.243-2.398m-5.373.012v-.025c0-2.026 1.475-3.225 2.962-3.225 1.151 0 1.895.623 2.375 1.318v-3.742h.923v8.756h-.923v-1.247c-.504.743-1.235 1.379-2.375 1.379-1.487 0-2.962-1.175-2.962-3.214M356.565 127.476h.924v-6.201h-.924v6.201zm-.059-7.555h1.055v-1.02h-1.055v1.02zM359.637 121.275h.924v1.08c.408-.672 1.055-1.21 2.122-1.21 1.5 0 2.375 1.006 2.375 2.482v3.85h-.923v-3.623c0-1.15-.624-1.87-1.715-1.87-1.068 0-1.859.78-1.859 1.942v3.55h-.924v-6.2zM372.163 124.406v-.023c0-1.332-.996-2.424-2.303-2.424-1.343 0-2.266 1.092-2.266 2.4v.024c0 1.33.983 2.41 2.29 2.41 1.343 0 2.279-1.08 2.279-2.387m-5.517 0v-.023c0-1.752 1.367-3.239 3.238-3.239 1.859 0 3.227 1.463 3.227 3.214v.025a3.22 3.22 0 0 1-3.251 3.238c-1.86 0-3.214-1.464-3.214-3.215M374.266 126.686l.468-.66c.672.504 1.415.79 2.147.79.743 0 1.283-.383 1.283-.983v-.023c0-.624-.731-.865-1.547-1.091-.972-.276-2.051-.612-2.051-1.752v-.023c0-1.07.887-1.776 2.11-1.776.757 0 1.596.263 2.232.683l-.42.695c-.576-.37-1.236-.599-1.835-.599-.732 0-1.2.385-1.2.9v.025c0 .587.768.814 1.596 1.067.959.288 1.99.659 1.99 1.774v.025c0 1.175-.971 1.859-2.206 1.859a4.276 4.276 0 0 1-2.567-.911M384.847 125.197v-.575a6.37 6.37 0 0 0-1.811-.264c-1.151 0-1.811.503-1.811 1.247v.024c0 .78.72 1.236 1.559 1.236 1.14 0 2.063-.684 2.063-1.668m-4.558.48v-.024c0-1.33 1.08-2.026 2.65-2.026a6.49 6.49 0 0 1 1.896.263v-.19c0-1.105-.672-1.68-1.835-1.68-.732 0-1.307.18-1.883.443l-.276-.756c.684-.31 1.343-.528 2.255-.528.876 0 1.559.241 2.003.684.432.432.647 1.031.647 1.823v3.79h-.911v-.924c-.432.553-1.14 1.056-2.231 1.056-1.163 0-2.315-.659-2.315-1.93M387.609 125.126v-3.851h.923v3.623c0 1.151.624 1.872 1.716 1.872 1.055 0 1.859-.781 1.859-1.944v-3.551h.91v6.202h-.91v-1.08c-.42.671-1.056 1.211-2.123 1.211-1.5 0-2.375-1.006-2.375-2.482M395.097 121.275h.924v1.62c.455-1.032 1.355-1.775 2.53-1.727v.996h-.072c-1.355 0-2.458.97-2.458 2.841v2.471h-.924v-6.2zM400.041 127.476h.924v-6.201h-.924v6.201zm-.061-7.555h1.056v-1.02h-1.056v1.02zM408.246 124.406v-.023c0-1.332-.996-2.424-2.303-2.424-1.343 0-2.266 1.092-2.266 2.4v.024c0 1.33.983 2.41 2.29 2.41 1.343 0 2.279-1.08 2.279-2.387m-5.517 0v-.023c0-1.752 1.367-3.239 3.238-3.239 1.859 0 3.227 1.463 3.227 3.214v.025a3.22 3.22 0 0 1-3.251 3.238c-1.86 0-3.214-1.464-3.214-3.215M334.978 140.233v-3.742h-.863v-.816h.863v-1.87h.923v1.87h1.967v.816h-1.966v3.622c0 .756.42 1.031 1.043 1.031.312 0 .576-.059.9-.215v.791a2.323 2.323 0 0 1-1.116.264c-.995 0-1.75-.492-1.75-1.75M344.455 138.807v-.024c0-1.331-.996-2.423-2.303-2.423-1.343 0-2.266 1.092-2.266 2.398v.025c0 1.33.983 2.41 2.29 2.41 1.343 0 2.28-1.08 2.28-2.386m-5.518 0v-.024c0-1.751 1.368-3.24 3.238-3.24a3.188 3.188 0 0 1 3.227 3.215v.025a3.22 3.22 0 0 1-3.25 3.238c-1.86 0-3.215-1.464-3.215-3.214M352.087 138.782v-.024c0-1.427-1.091-2.387-2.243-2.387-1.2 0-2.182.888-2.182 2.387v.024c0 1.463 1.007 2.398 2.182 2.398 1.152 0 2.243-.97 2.243-2.398m-5.373.012v-.025c0-2.026 1.476-3.225 2.962-3.225 1.152 0 1.895.624 2.375 1.32v-3.743h.924v8.756h-.924v-1.248c-.504.744-1.235 1.38-2.375 1.38-1.486 0-2.962-1.176-2.962-3.215M359.131 139.598v-.576a6.407 6.407 0 0 0-1.81-.264c-1.152 0-1.812.504-1.812 1.248v.024c0 .779.72 1.235 1.56 1.235 1.14 0 2.062-.684 2.062-1.667m-4.558.48v-.024c0-1.331 1.08-2.027 2.651-2.027.792 0 1.344.108 1.895.264v-.192c0-1.104-.672-1.68-1.835-1.68-.732 0-1.307.18-1.883.445l-.276-.756c.684-.312 1.343-.528 2.255-.528.876 0 1.56.24 2.003.684.432.432.647 1.03.647 1.822v3.79h-.91v-.923c-.433.552-1.14 1.055-2.232 1.055-1.163 0-2.315-.66-2.315-1.93M361.138 135.676h1.02l2.086 5.146 2.1-5.146h.995l-2.699 6.248h-.815zM370.101 133.002l.96.443-1.368 1.295h-.719l1.127-1.738zm-1.224 8.875h.924v-6.201h-.924v6.201zM376.04 139.598v-.576a6.407 6.407 0 0 0-1.812-.264c-1.15 0-1.81.504-1.81 1.248v.024c0 .779.72 1.235 1.558 1.235 1.14 0 2.063-.684 2.063-1.667m-4.558.48v-.024c0-1.331 1.08-2.027 2.651-2.027.792 0 1.344.108 1.895.264v-.192c0-1.104-.672-1.68-1.835-1.68-.732 0-1.307.18-1.883.445l-.276-.756c.684-.312 1.343-.528 2.255-.528.876 0 1.56.24 2.003.684.432.432.647 1.03.647 1.822v3.79h-.91v-.923c-.433.552-1.14 1.055-2.232 1.055-1.163 0-2.315-.66-2.315-1.93M387.043 138.41c-.108-1.127-.756-2.086-1.979-2.086-1.067 0-1.883.887-2.015 2.086h3.994zm-1.811 2.807c.852 0 1.451-.348 1.955-.875l.575.515c-.623.696-1.379 1.163-2.554 1.163-1.703 0-3.095-1.307-3.095-3.238 0-1.799 1.26-3.238 2.975-3.238 1.835 0 2.89 1.464 2.89 3.286 0 .084 0 .18-.012.324h-4.917c.132 1.307 1.091 2.063 2.183 2.063zM389.085 141.085l.468-.659c.672.504 1.415.791 2.147.791.743 0 1.283-.384 1.283-.984v-.024c0-.623-.73-.863-1.547-1.091-.972-.276-2.05-.612-2.05-1.751v-.024c0-1.068.886-1.775 2.11-1.775.756 0 1.595.264 2.231.684l-.42.695c-.576-.372-1.236-.599-1.835-.599-.732 0-1.2.383-1.2.899v.025c0 .587.768.814 1.596 1.066.96.289 1.99.66 1.99 1.775v.024c0 1.176-.97 1.859-2.206 1.859a4.27 4.27 0 0 1-2.567-.911M395.781 140.233v-3.742h-.864v-.816h.864v-1.87h.923v1.87h1.967v.816h-1.967v3.622c0 .756.42 1.031 1.044 1.031.311 0 .575-.059.9-.215v.791a2.323 2.323 0 0 1-1.116.264c-.996 0-1.75-.492-1.75-1.75M404.394 139.598v-.576a6.407 6.407 0 0 0-1.81-.264c-1.151 0-1.812.504-1.812 1.248v.024c0 .779.72 1.235 1.56 1.235 1.14 0 2.063-.684 2.063-1.667m-4.558.48v-.024c0-1.331 1.08-2.027 2.65-2.027.792 0 1.344.108 1.895.264v-.192c0-1.104-.671-1.68-1.834-1.68-.733 0-1.308.18-1.884.445l-.275-.756c.683-.312 1.342-.528 2.255-.528.875 0 1.558.24 2.002.684.433.432.647 1.03.647 1.822v3.79h-.91v-.923c-.433.552-1.14 1.055-2.231 1.055-1.163 0-2.315-.66-2.315-1.93M412.566 138.794v-.024c0-1.463-1.008-2.4-2.183-2.4-1.15 0-2.243.973-2.243 2.388v.024c0 1.439 1.092 2.399 2.243 2.399 1.2 0 2.183-.888 2.183-2.387m-4.39 1.896v1.187h-.923v-8.756h.923v3.803c.504-.744 1.236-1.38 2.375-1.38 1.487 0 2.962 1.175 2.962 3.214v.024c0 2.027-1.463 3.226-2.962 3.226-1.152 0-1.895-.623-2.375-1.318M419.31 139.598v-.576a6.407 6.407 0 0 0-1.81-.264c-1.151 0-1.812.504-1.812 1.248v.024c0 .779.72 1.235 1.56 1.235 1.14 0 2.063-.684 2.063-1.667m-4.558.48v-.024c0-1.331 1.08-2.027 2.65-2.027.792 0 1.344.108 1.895.264v-.192c0-1.104-.671-1.68-1.834-1.68-.733 0-1.308.18-1.884.445l-.275-.756c.683-.312 1.342-.528 2.255-.528.875 0 1.558.24 2.002.684.433.432.647 1.03.647 1.822v3.79h-.91v-.923c-.433.552-1.14 1.055-2.231 1.055-1.163 0-2.315-.66-2.315-1.93M429.857 139.598v-.576a6.407 6.407 0 0 0-1.81-.264c-1.152 0-1.812.504-1.812 1.248v.024c0 .779.72 1.235 1.56 1.235 1.14 0 2.062-.684 2.062-1.667m-4.558.48v-.024c0-1.331 1.08-2.027 2.651-2.027.792 0 1.344.108 1.895.264v-.192c0-1.104-.672-1.68-1.835-1.68-.732 0-1.307.18-1.883.445l-.276-.756c.684-.312 1.343-.528 2.255-.528.876 0 1.56.24 2.003.684.432.432.647 1.03.647 1.822v3.79h-.91v-.923c-.433.552-1.14 1.055-2.232 1.055-1.163 0-2.315-.66-2.315-1.93M432.8 141.877h.924v-8.756h-.924zM435.955 141.877h.924v-8.756h-.924zM440.335 133.002l.959.443-1.367 1.295h-.719l1.127-1.738zm-1.224 8.875h.924v-6.201h-.924v6.201zM444.162 135.783c.6-.215.852-.527.804-1.043h-.432v-1.26h1.09v1.08c0 .971-.406 1.44-1.318 1.643l-.144-.42zm-2.398 0c.599-.215.85-.527.803-1.043h-.432v-1.26h1.104v1.08c0 .971-.42 1.44-1.332 1.643l-.143-.42z" mask="url(#b)"/>
            <path fill="#4AC8D9" d="M339.15 152.318l-1.59-3.568-1.598 3.568h3.188zm-1.95-4.488h.74l3.189 7.047h-.85l-.82-1.85h-3.807l-.83 1.85h-.81l3.189-7.047zM342.203 152.918v-3.209h.77v3.019c0 .96.519 1.559 1.429 1.559.879 0 1.549-.65 1.549-1.619v-2.959h.759v5.168h-.76v-.9c-.35.56-.88 1.009-1.768 1.009-1.25 0-1.98-.839-1.98-2.068M352.62 152.048v-.021c0-1.058-.919-1.748-1.899-1.748-.979 0-1.789.68-1.789 1.739v.02c0 1.04.83 1.759 1.79 1.759.98 0 1.898-.71 1.898-1.75m-4.237 3.73l.35-.601c.59.43 1.248.66 1.988.66 1.14 0 1.88-.63 1.88-1.84v-.61c-.45.6-1.08 1.09-2.03 1.09-1.239 0-2.429-.93-2.429-2.417v-.021c0-1.51 1.2-2.438 2.43-2.438.97 0 1.598.479 2.018 1.039v-.93h.77v4.268c0 .8-.24 1.409-.66 1.829-.46.46-1.149.689-1.969.689a4.05 4.05 0 0 1-2.348-.718M355.002 152.918v-3.209h.77v3.019c0 .96.52 1.559 1.43 1.559.878 0 1.548-.65 1.548-1.619v-2.959h.76v5.168h-.76v-.9c-.35.56-.88 1.009-1.769 1.009-1.25 0-1.979-.839-1.979-2.068M360.813 154.217l.39-.55c.56.42 1.179.659 1.788.659.62 0 1.07-.32 1.07-.818v-.02c0-.521-.61-.72-1.29-.91-.81-.23-1.709-.51-1.709-1.46v-.02c0-.89.74-1.48 1.76-1.48.63 0 1.329.222 1.858.572l-.35.579c-.478-.31-1.029-.5-1.529-.5-.61 0-.998.32-.998.75v.02c0 .49.639.68 1.329.889.798.24 1.659.55 1.659 1.479v.02c0 .979-.81 1.55-1.84 1.55-.74 0-1.559-.29-2.139-.76M366.393 153.508v-3.12h-.72v-.68h.72v-1.557h.77v1.558h1.639v.68h-1.64v3.018c0 .63.35.86.87.86.26 0 .48-.05.75-.18v.659c-.27.14-.56.22-.93.22-.83 0-1.46-.41-1.46-1.458M374.29 152.318v-.02c0-1.11-.83-2.019-1.919-2.019-1.12 0-1.889.91-1.889 1.998v.02c0 1.11.82 2.01 1.909 2.01 1.119 0 1.899-.9 1.899-1.989m-4.598 0v-.02c0-1.459 1.14-2.699 2.699-2.699a2.656 2.656 0 0 1 2.689 2.678v.02a2.684 2.684 0 0 1-2.709 2.7c-1.549 0-2.679-1.22-2.679-2.679M379.602 147.88h.8l2.548 3.818 2.55-3.817h.798v6.996h-.789v-5.668l-2.549 3.748h-.04l-2.548-3.737v5.657h-.77zM392.43 152.318v-.02c0-1.11-.83-2.019-1.919-2.019-1.12 0-1.889.91-1.889 1.998v.02c0 1.11.82 2.01 1.91 2.01 1.118 0 1.898-.9 1.898-1.989m-4.598 0v-.02c0-1.459 1.14-2.699 2.7-2.699a2.656 2.656 0 0 1 2.688 2.678v.02a2.684 2.684 0 0 1-2.709 2.7c-1.549 0-2.679-1.22-2.679-2.679M394.612 149.709h.77v.9c.34-.56.88-1.009 1.77-1.009 1.248 0 1.978.839 1.978 2.068v3.209h-.77v-3.02c0-.959-.519-1.558-1.429-1.558-.89 0-1.549.65-1.549 1.619v2.959h-.77v-5.168zM401.043 153.508v-3.12h-.72v-.68h.72v-1.557h.77v1.558h1.639v.68h-1.64v3.018c0 .63.35.86.87.86.26 0 .48-.05.75-.18v.659c-.27.14-.56.22-.93.22-.83 0-1.46-.41-1.46-1.458M408.45 151.988c-.09-.939-.63-1.739-1.648-1.739-.89 0-1.57.74-1.68 1.74h3.329zm-1.508 2.338c.709 0 1.209-.289 1.629-.729l.48.43c-.52.58-1.15.97-2.13.97-1.418 0-2.578-1.09-2.578-2.699 0-1.499 1.05-2.699 2.479-2.699 1.529 0 2.409 1.22 2.409 2.74 0 .07 0 .15-.01.268h-4.098c.11 1.09.91 1.72 1.819 1.72zM410.582 149.709h.77v1.35c.38-.86 1.13-1.479 2.109-1.44v.83h-.06c-1.13 0-2.048.809-2.048 2.368v2.06h-.77v-5.168zM414.632 149.709h.77v1.35c.38-.86 1.13-1.479 2.108-1.44v.83h-.059c-1.13 0-2.049.809-2.049 2.368v2.06h-.77v-5.168zM422.74 152.318v-.02c0-1.11-.83-2.019-1.919-2.019-1.12 0-1.889.91-1.889 1.998v.02c0 1.11.82 2.01 1.91 2.01 1.118 0 1.898-.9 1.898-1.989m-4.598 0v-.02c0-1.459 1.14-2.699 2.7-2.699a2.656 2.656 0 0 1 2.688 2.678v.02a2.684 2.684 0 0 1-2.709 2.7c-1.549 0-2.679-1.22-2.679-2.679M424.493 154.217l.39-.55c.56.42 1.179.659 1.789.659.619 0 1.07-.32 1.07-.818v-.02c0-.521-.61-.72-1.29-.91-.81-.23-1.71-.51-1.71-1.46v-.02c0-.89.74-1.48 1.76-1.48.63 0 1.329.222 1.859.572l-.35.579c-.48-.31-1.03-.5-1.53-.5-.61 0-.998.32-.998.75v.02c0 .49.639.68 1.329.889.799.24 1.659.55 1.659 1.479v.02c0 .979-.81 1.55-1.84 1.55-.74 0-1.558-.29-2.138-.76M434.18 152.318v-.02c0-1.11-.83-2.019-1.919-2.019-1.12 0-1.889.91-1.889 1.998v.02c0 1.11.82 2.01 1.91 2.01 1.118 0 1.898-.9 1.898-1.989m-4.598 0v-.02c0-1.459 1.14-2.699 2.7-2.699a2.656 2.656 0 0 1 2.688 2.678v.02a2.684 2.684 0 0 1-2.709 2.7c-1.549 0-2.679-1.22-2.679-2.679M334.303 164.008c0-1.84.989-3.278 2.769-4.278l.329.509c-1.52.97-2.32 2.169-2.32 3.769 0 1.599.8 2.798 2.32 3.768l-.33.509c-1.78-1-2.768-2.438-2.768-4.277M339.752 160.65l-1.319.41-.19-.64 1.709-.59h.579v7.046h-.779zM346.44 162.068v-.02c0-.889-.73-1.588-1.779-1.588-1.05 0-1.679.77-1.679 1.638v.02c0 .89.7 1.53 1.72 1.53 1.068 0 1.738-.78 1.738-1.58m-4.108 4.068l.46-.61c.57.5 1.1.75 1.72.75 1.258 0 2.108-1.279 2.078-3.068-.38.61-1.01 1.12-1.979 1.12-1.44 0-2.439-.91-2.439-2.17v-.02c0-1.329 1.03-2.379 2.52-2.379.798 0 1.388.27 1.838.72.53.53.87 1.31.87 2.71v.02c0 2.217-1.18 3.787-2.909 3.787-.909 0-1.569-.37-2.159-.86M348.493 165.887l.52-.57c.609.59 1.279.96 1.988.96 1 0 1.69-.661 1.69-1.55v-.02c0-.87-.72-1.468-1.74-1.468-.59 0-1.06.179-1.47.399l-.53-.35.202-3.408h4.027v.73h-3.338l-.15 2.239c.41-.181.8-.311 1.38-.311 1.359 0 2.418.81 2.418 2.139v.02c0 1.37-1.04 2.299-2.498 2.299-1 0-1.87-.48-2.5-1.11M358.93 162.068v-.02c0-.889-.73-1.588-1.778-1.588-1.05 0-1.68.77-1.68 1.638v.02c0 .89.7 1.53 1.72 1.53 1.069 0 1.739-.78 1.739-1.58m-4.108 4.068l.46-.61c.569.5 1.099.75 1.719.75 1.259 0 2.109-1.279 2.079-3.068-.38.61-1.01 1.12-1.98 1.12-1.44 0-2.438-.91-2.438-2.17v-.02c0-1.329 1.03-2.379 2.519-2.379.799 0 1.389.27 1.839.72.53.53.869 1.31.869 2.71v.02c0 2.217-1.18 3.787-2.908 3.787-.91 0-1.57-.37-2.16-.86M361.063 167.775c1.52-.97 2.319-2.169 2.319-3.768 0-1.599-.8-2.798-2.32-3.768l.33-.51c1.78 1 2.77 2.44 2.77 4.278 0 1.84-.99 3.28-2.77 4.278l-.33-.51z" mask="url(#b)"/>
        </g>
    </g>
</svg>
