<svg xmlns="http://www.w3.org/2000/svg" xmlns:xlink="http://www.w3.org/1999/xlink" width="627" height="223" viewBox="0 0 627 223">
    <defs>
        <path id="a" d="M0 222.199h626.947V0H0z"/>
    </defs>
    <g fill="none" fill-rule="evenodd">
        <path fill="#3896A3" d="M336.742 123.437l-2.157-2.502 4.046-3.489-4.06-3.575 2.185-2.48 5.482 4.828a1.647 1.647 0 0 1-.014 2.49l-5.482 4.728z"/>
        <mask id="b" fill="#fff">
            <use xlink:href="#a"/>
        </mask>
        <path fill="#3896A3" d="M315.539 118.947h25.606v-3.306h-25.606z" mask="url(#b)"/>
        <path fill="#373737" d="M303.148 118.947h8.261v-3.306h-8.261z" mask="url(#b)"/>
        <path fill="#3896A3" d="M364.827 136.719l-2.157-2.502 4.046-3.49-4.06-3.576 2.184-2.48 5.482 4.829a1.652 1.652 0 0 1-.013 2.49l-5.482 4.728z" mask="url(#b)"/>
        <path fill="#3896A3" d="M342.797 132.163h26.433v-3.305h-26.433zM289.102 133.009c9.168 0 16.447-7.432 16.447-16.602 0-9.168-7.202-16.6-16.37-16.6-.101 0-.073.013-.073.016v33.17c0 .002-.105.016-.004.016" mask="url(#b)"/>
        <path fill="#4AC8D9" d="M145.379 137.945h20.65V95.818h-20.65z" mask="url(#b)"/>
        <path fill="#92DEE8" d="M288.28 164.441a2.415 2.415 0 0 1-2.415 2.415h-10.039a2.415 2.415 0 0 1-2.415-2.415V69.322a2.415 2.415 0 0 1 2.415-2.415h10.04a2.415 2.415 0 0 1 2.414 2.415v95.12z" mask="url(#b)"/>
        <path fill="#3896A3" d="M275.826 68.56a.763.763 0 0 0-.763.762v95.12c0 .42.343.761.763.761h10.04c.42 0 .762-.342.762-.762V69.322a.762.762 0 0 0-.762-.762h-10.04zm10.04 99.946h-10.04a4.07 4.07 0 0 1-4.066-4.065V69.322a4.071 4.071 0 0 1 4.066-4.067h10.04a4.071 4.071 0 0 1 4.066 4.067v95.12a4.07 4.07 0 0 1-4.066 4.064zM182.55 185.028h18.999v-31.389H182.55z" mask="url(#b)"/>
        <path fill="#3896A3" d="M184.202 183.376h15.695v-28.083h-15.695v28.083zm17.346 3.303H182.55a1.651 1.651 0 0 1-1.652-1.651v-31.389c0-.913.739-1.652 1.652-1.652h18.998c.913 0 1.653.739 1.653 1.652v31.389c0 .912-.74 1.651-1.653 1.651zM137.119 124.729h6.609V109.86h-6.609v14.869zm8.26 3.303h-9.912a1.651 1.651 0 0 1-1.652-1.651v-18.172c0-.912.739-1.653 1.652-1.653h9.912c.912 0 1.652.741 1.652 1.653v18.172c0 .912-.74 1.651-1.652 1.651z" mask="url(#b)"/>
        <path fill="#92DEE8" d="M223.85 90.717l31.39-8.59v69.165l-31.39-8.59z" mask="url(#b)"/>
        <path fill="#DBF4F7" d="M273.412 77.17v79.078l-18.172-4.956V82.127z" mask="url(#b)"/>
        <path fill="#3896A3" d="M256.892 150.03l14.868 4.055V79.332l-14.868 4.055v66.643zm16.52 7.87c-.145 0-.291-.019-.435-.058l-18.172-4.957a1.65 1.65 0 0 1-1.217-1.593V82.127c0-.745.498-1.398 1.217-1.595l18.172-4.956a1.659 1.659 0 0 1 1.438.28c.409.315.649.8.649 1.314v79.078a1.652 1.652 0 0 1-1.652 1.652z" mask="url(#b)"/>
        <path fill="#DBF4F7" d="M223.85 150.017c0 2-1.621 3.622-3.621 3.622h-50.577a3.622 3.622 0 0 1-3.622-3.622v-66.27c0-2 1.62-3.624 3.622-3.624h50.577c2 0 3.622 1.623 3.622 3.623v66.271z" mask="url(#b)"/>
        <path fill="#3896A3" d="M169.651 81.776c-1.086 0-1.97.883-1.97 1.97v66.271c0 1.087.884 1.97 1.97 1.97h50.577c1.087 0 1.97-.883 1.97-1.97v-66.27c0-1.088-.883-1.97-1.97-1.97h-50.577zm50.577 73.517h-50.577a5.28 5.28 0 0 1-5.273-5.276v-66.27a5.28 5.28 0 0 1 5.273-5.277h50.577a5.282 5.282 0 0 1 5.274 5.276v66.271a5.282 5.282 0 0 1-5.274 5.276z" mask="url(#b)"/>
        <path fill="#9DA4A9" d="M181.343 129.285c0 7.113 5.766 12.878 12.88 12.878 7.111 0 12.876-5.765 12.876-12.878 0-7.112-5.765-12.878-12.877-12.878-7.113 0-12.879 5.766-12.879 12.878" mask="url(#b)"/>
        <path fill="#3896A3" d="M176.768 94.167h34.693v-3.306h-34.693zM176.768 104.904h34.693V101.6h-34.693z" mask="url(#b)"/>
        <path fill="#92DEE8" d="M0 208.983h152.814v-44.605H0z" mask="url(#b)"/>
        <path fill="#DBF4F7" d="M153.639 208.983h14.868v-44.605h-14.868z" mask="url(#b)"/>
        <path fill="#3896A3" d="M155.292 207.331h11.564v-41.302h-11.564v41.302zm13.215 3.304h-14.868c-.912 0-1.652-.74-1.652-1.652v-44.605c0-.913.74-1.653 1.652-1.653h14.868c.913 0 1.652.74 1.652 1.653v44.605c0 .912-.739 1.652-1.652 1.652z" mask="url(#b)"/>
        <path fill="#FFF" d="M194.087 205.68c2.87 0 5.197-2.501 5.197-5.37 0-2.87-2.326-5.37-5.197-5.37h4.097c2.868 0 5.194-2.087 5.194-4.954 0-2.87-2.326-4.957-5.194-4.957h6.206c2.87 0 5.195-2.499 5.195-5.37 0-2.87-2.325-5.368-5.195-5.368h11.929s4.228-.07 4.228-4.41c0-4.847-4.093-5.504-4.093-5.504h-37.377l-10.57 5.702v35.6h25.58z" mask="url(#b)"/>
        <path fill="#3896A3" d="M170.16 204.027h23.927c1.922 0 3.544-1.702 3.544-3.718 0-2.013-1.622-3.717-3.544-3.717a1.652 1.652 0 0 1 0-3.304h4.096c2.02 0 3.542-1.42 3.542-3.303 0-1.884-1.522-3.306-3.542-3.306a1.65 1.65 0 1 1 0-3.303h6.207c1.92 0 3.543-1.702 3.543-3.718 0-2.014-1.623-3.715-3.543-3.715a1.653 1.653 0 0 1 0-3.306h11.93c.57-.02 2.575-.286 2.575-2.756 0-2.99-1.977-3.702-2.61-3.852h-36.792l-9.334 5.037v32.961zm23.927 3.304h-25.58c-.912 0-1.652-.74-1.652-1.652V170.08c0-.608.333-1.166.868-1.454l10.57-5.703c.24-.129.51-.198.783-.198h37.377c.088 0 .175.007.262.022 1.897.303 5.484 2.186 5.484 7.134 0 4.377-3.5 6.021-5.853 6.062h-6.183a7 7 0 0 1 1.074 3.715c0 3.807-3.136 7.021-6.847 7.021h-.25c.568.968.89 2.094.89 3.306 0 3.183-2.218 5.771-5.276 6.44a7.033 7.033 0 0 1 1.182 3.884c0 3.807-3.136 7.022-6.849 7.022z" mask="url(#b)"/>
        <path fill="#3896A3" d="M199.07 175.943h4.956v-3.306h-4.956zM194.94 186.679h3.305v-3.304h-3.305zM191.636 196.593h2.478v-3.305h-2.478zM137.945 175.943h5.783v-3.306h-5.783zM128.033 175.943h5.782v-3.306h-5.782zM118.947 175.943h5.782v-3.306h-5.782z" mask="url(#b)"/>
        <path fill="#231F20" d="M576.2 21.848l-.742-3.22 19.73-4.544.741 3.22z" mask="url(#b)"/>
        <path fill="#3896A3" d="M518.924 35.04l-.741-3.22 38.654-8.901.74 3.22z" mask="url(#b)"/>
        <path fill="#373737" d="M471.644 45.931l-.741-3.22 42.857-9.872.74 3.22z" mask="url(#b)"/>
        <path fill="#3896A3" d="M441.724 52.823l-.742-3.22 20.84-4.801.742 3.22zM403.348 61.662l-.742-3.218 35.687-8.221.742 3.219z" mask="url(#b)"/>
        <path fill="#231F20" d="M395.398 63.495l-.74-3.221 4.585-1.055.74 3.218zM359.565 71.747l-.743-3.22 31.99-7.367.74 3.22z" mask="url(#b)"/>
        <path fill="#3896A3" d="M316.898 81.576l-.741-3.22 21.067-4.852.742 3.218z" mask="url(#b)"/>
        <path fill="#9EA5FF" d="M301.867 85.037l-.742-3.218 12.036-2.773.743 3.22z" mask="url(#b)"/>
        <path fill="#777CBF" d="M307.174 151.686l-6.048-1.393.742-3.219 6.048 1.392z" mask="url(#b)"/>
        <path fill="#3896A3" d="M335.879 158.298l-24.707-5.69.742-3.22 24.708 5.692zM376.219 167.59l-37.96-8.744.743-3.22 37.959 8.745zM421.545 178.031l-29.683-6.838.743-3.219 29.682 6.837z" mask="url(#b)"/>
        <path fill="#777CBF" d="M433.423 180.768l-6.945-1.602.74-3.219 6.946 1.6z" mask="url(#b)"/>
        <path fill="#3896A3" d="M484.415 192.512l-47.982-11.05.741-3.221 47.983 11.051z" mask="url(#b)"/>
        <path fill="#9EA5FF" d="M502.44 196.663l-4.75-1.094.74-3.22 4.75 1.095z" mask="url(#b)"/>
        <path fill="#373737" d="M583.755 215.393l-78.587-18.103.742-3.218 78.586 18.101z" mask="url(#b)"/>
        <path fill="#777CBF" d="M595.188 218.026l-7.479-1.723.742-3.219 7.478 1.723z" mask="url(#b)"/>
        <path fill="#DBF4F7" d="M410.531 37.997h-64.43v42.127h33.867v15.694l15.694-15.694h14.87z" mask="url(#b)"/>
        <path fill="#3896A3" d="M354.362 49.56h13.216v-3.304h-13.216zM354.362 57.821h48.735v-3.305h-48.735zM354.362 66.081h48.735v-3.303h-48.735zM354.361 74.342h12.391v-3.304h-12.391zM372.533 74.342h12.391v-3.304h-12.391zM390.706 74.342h12.391v-3.304h-12.391zM373.361 49.56h29.736v-3.304h-29.736z" mask="url(#b)"/>
        <path fill="#DBF4F7" d="M416.313 184.202h-46.256v-31.39h23.127v-10.737l12.31 10.738h10.82z" mask="url(#b)"/>
        <path fill="#3896A3" d="M393.185 175.115h15.694v-3.304h-15.694zM376.664 175.115h11.564v-3.304h-11.564zM376.664 164.378h32.215v-3.304h-32.215z" mask="url(#b)"/>
        <path fill="#92DEE8" d="M460.17 123.044l7.043-5.87 29.002-23.833h-70.777l27.946 23.834z" mask="url(#b)"/>
        <path fill="#FFF" d="M425.4 93.55v45.876l27.946-22.146z" mask="url(#b)"/>
        <path fill="#3896A3" d="M427.051 97.12v38.889l23.69-18.773-23.69-20.116zm-1.652 43.957c-.244 0-.49-.053-.719-.162a1.655 1.655 0 0 1-.933-1.49V93.552a1.653 1.653 0 1 1 2.722-1.261l27.946 23.732a1.65 1.65 0 0 1-.043 2.554l-27.947 22.146a1.662 1.662 0 0 1-1.026.355z" mask="url(#b)"/>
        <path fill="#FFF" d="M467.435 117.28l29.001 22.146V93.551z" mask="url(#b)"/>
        <path fill="#3896A3" d="M470.098 117.235l24.687 18.852v-39.05l-24.687 20.198zm26.338 23.842c-.355 0-.709-.113-1.002-.338l-29.002-22.146a1.651 1.651 0 0 1-.043-2.59L495.39 92.27a1.654 1.654 0 0 1 2.698 1.28v45.874a1.651 1.651 0 0 1-1.652 1.652z" mask="url(#b)"/>
        <path fill="#E6E7E8" d="M460.17 123.044l-6.786-5.68-27.946 22.233h70.777l-29.002-22.232z" mask="url(#b)"/>
        <path fill="#3896A3" d="M430.168 137.945h61.177l-24.105-18.478-6.033 4.863a1.65 1.65 0 0 1-2.097-.02l-5.752-4.812-23.19 18.447zm66.047 3.304h-70.777a1.652 1.652 0 0 1-1.029-2.946l27.947-22.23a1.651 1.651 0 0 1 2.088.026l5.746 4.807 5.988-4.825a1.65 1.65 0 0 1 2.041-.027l29.002 22.232a1.65 1.65 0 0 1-1.006 2.963zM463.396 94.992h14.043V83.428h-14.043v11.564zm15.694 3.304h-17.346c-.913 0-1.652-.74-1.652-1.653V81.776c0-.913.739-1.652 1.652-1.652h17.346c.913 0 1.652.739 1.652 1.652v14.867c0 .913-.739 1.653-1.652 1.653zM439.441 84.254h15.694V80.95h-15.694zM439.441 90.861h15.694v-3.303h-15.694zM439.441 97.47h15.694v-3.303h-15.694z" mask="url(#b)"/>
        <path fill="#FFF" d="M520.391 220.547h59.473v-47.084h-59.473z" mask="url(#b)"/>
        <path fill="#3896A3" d="M522.043 218.895h56.169v-43.78h-56.169v43.78zm57.821 3.304h-59.473c-.912 0-1.652-.74-1.652-1.652v-47.084c0-.911.74-1.652 1.652-1.652h59.473c.913 0 1.653.741 1.653 1.652v47.084c0 .912-.74 1.652-1.653 1.652z" mask="url(#b)"/>
        <path fill="#92DEE8" d="M525.348 214.763h48.734v-36.344h-48.734z" mask="url(#b)"/>
        <path fill="#3896A3" d="M564.336 204.89l-19.029-10.964-19.454 10.104-1.522-2.933 20.255-10.52a1.652 1.652 0 0 1 1.586.035l19.814 11.418-1.65 2.86z" mask="url(#b)"/>
        <path fill="#3896A3" d="M573.216 199.963l-9.018-5.851-6.414 5.699-2.194-2.47 7.355-6.533a1.655 1.655 0 0 1 1.996-.15l10.073 6.53-1.798 2.775z" mask="url(#b)"/>
        <path fill="#FFF" d="M558.67 185.663a4.59 4.59 0 1 1-9.179.002 4.59 4.59 0 0 1 9.178-.002" mask="url(#b)"/>
        <path fill="#92DEE8" d="M481.569 49.56h58.647V10.737h-58.647z" mask="url(#b)"/>
        <path fill="#F1F2F2" d="M481.569 58.646h58.647V49.56h-58.647z" mask="url(#b)"/>
        <path fill="#3896A3" d="M483.22 56.995h55.343v-5.781H483.22v5.781zm56.996 3.304h-58.648c-.912 0-1.651-.74-1.651-1.653V49.56a1.65 1.65 0 0 1 1.651-1.651h58.648c.912 0 1.652.739 1.652 1.651v9.086c0 .913-.74 1.653-1.652 1.653zM506.35 28.624v6.357l6.754-3.18-6.755-3.177zm-1.653 10.61c-.309 0-.617-.086-.886-.254a1.658 1.658 0 0 1-.766-1.396V26.02a1.653 1.653 0 0 1 2.354-1.497l12.288 5.784a1.65 1.65 0 0 1 0 2.99L505.4 39.079a1.632 1.632 0 0 1-.702.156zM481.569 12.389h58.647V9.086h-58.647z" mask="url(#b)"/>
        <path fill="#4AC8D9" d="M605.138 108.722c0 15.88-12.875 28.752-28.753 28.752-15.88 0-28.754-12.873-28.754-28.752 0-15.88 12.874-28.755 28.754-28.755 15.878 0 28.753 12.874 28.753 28.755" mask="url(#b)"/>
        <path fill="#DBF4F7" d="M596.415 108.204c0 10.812-8.763 19.573-19.574 19.573-10.809 0-19.572-8.761-19.572-19.573 0-10.81 8.763-19.573 19.572-19.573 10.811 0 19.574 8.763 19.574 19.573" mask="url(#b)"/>
        <path fill="#3896A3" d="M576.841 90.284c-9.882 0-17.92 8.039-17.92 17.92 0 9.881 8.038 17.922 17.92 17.922 9.882 0 17.921-8.041 17.921-17.922s-8.039-17.92-17.92-17.92m0 39.145c-11.704 0-21.225-9.521-21.225-21.225 0-11.703 9.521-21.225 21.224-21.225 11.704 0 21.226 9.522 21.226 21.225 0 11.704-9.522 21.225-21.226 21.225" mask="url(#b)"/>
        <path fill="#3896A3" d="M576.576 99.805c-4.485 0-8.135 3.648-8.135 8.136 0 4.484 3.65 8.135 8.135 8.135 4.486 0 8.136-3.65 8.136-8.135 0-4.488-3.65-8.136-8.136-8.136m0 19.573c-6.307 0-11.438-5.13-11.438-11.437 0-6.309 5.131-11.44 11.438-11.44 6.308 0 11.44 5.131 11.44 11.44 0 6.306-5.132 11.437-11.44 11.437" mask="url(#b)"/>
        <path fill="#3896A3" d="M574.908 109.86h39.649v-3.304h-39.649z" mask="url(#b)"/>
        <path fill="#3896A3" d="M612.905 113.991h3.304v-11.565h-3.304zM546.626 114.907c-.947-11.326 1.542-20.327 7.397-26.748 8.77-9.616 21.797-9.838 22.348-9.844l.028 3.305-.014-1.652.017 1.652c-.12.002-12.181.237-19.959 8.791-5.196 5.713-7.39 13.861-6.525 24.223l-3.292.273z" mask="url(#b)"/>
        <path fill="#92DEE8" d="M473.308 208.832v-4.928c.826-.284 1.79-.654 2.636-1.106l3.468 3.484a.835.835 0 0 0 1.188 0l4.987-4.992a.842.842 0 0 0 0-1.194l-3.487-3.4c.451-.843.821-1.757 1.104-2.582h4.93c.465 0 .868-.552.868-1.018v-7.062c0-.467-.403-1.006-.869-1.006h-4.929a18.016 18.016 0 0 0-1.104-2.587l3.483-3.447a.818.818 0 0 0 0-1.175l-4.993-4.981a.838.838 0 0 0-1.194.006l-3.452 3.484c-.846-.448-1.81-.818-2.636-1.105v-4.927c0-.466-.444-.963-.912-.963h-7.06c-.467 0-1.114.497-1.114.963v4.927c-.827.287-1.69.659-2.532 1.107l-3.42-3.481a.798.798 0 0 0-1.16 0l-4.98 4.99a.848.848 0 0 0 .01 1.198l3.492 3.404a17.92 17.92 0 0 0-1.106 2.587H449.6c-.467 0-1.073.539-1.073 1.006v7.062c0 .466.606 1.018 1.073 1.018h4.926c.284.825.658 1.739 1.11 2.582l-3.489 3.444a.817.817 0 0 0 0 1.172l4.994 4.98a.843.843 0 0 0 1.196-.004l3.353-3.487c.842.45 1.705.819 2.532 1.103v4.928c0 .466.647.977 1.113.977h7.061c.468 0 .912-.511.912-.977" mask="url(#b)"/>
        <path fill="#F1F2F2" d="M468.685 196.135a6.336 6.336 0 0 1-6.333-6.337 6.334 6.334 0 1 1 12.668 0 6.336 6.336 0 0 1-6.335 6.337" mask="url(#b)"/>
        <path fill="#3896A3" d="M468.685 185.115a4.688 4.688 0 0 0-4.681 4.683c0 2.582 2.1 4.683 4.68 4.683a4.689 4.689 0 0 0 4.684-4.683 4.689 4.689 0 0 0-4.683-4.683m0 12.67c-4.403 0-7.985-3.583-7.985-7.987 0-4.405 3.582-7.988 7.985-7.988 4.404 0 7.987 3.583 7.987 7.988 0 4.404-3.583 7.987-7.987 7.987" mask="url(#b)"/>
        <path fill="#92DEE8" d="M588.125 39.505v-4.927c.826-.284 1.891-.654 2.737-1.107l3.52 3.485a.862.862 0 0 0 1.212 0l5.001-4.992a.845.845 0 0 0 .005-1.195l-3.484-3.403c.45-.842.826-1.76 1.109-2.586h4.928c.466 0 .665-.545.665-1.012v-7.061c0-.467-.198-1.013-.665-1.013h-4.928a17.985 17.985 0 0 0-1.106-2.584l3.485-3.443a.82.82 0 0 0 0-1.176l-4.995-4.98a.84.84 0 0 0-1.194.005L590.862 7c-.846-.448-1.911-.818-2.737-1.104V.97c0-.466-.241-.97-.708-.97h-7.063c-.465 0-.49.504-.49.97v4.927c-1.652.286-2.002.659-2.844 1.108l-3.574-3.483a.895.895 0 0 0-1.24 0l-5.018 4.992a.846.846 0 0 0-.01 1.195l3.484 3.4a18.069 18.069 0 0 0-1.117 2.585h-4.924c-.468 0-.452.546-.452 1.013v7.06c0 .468-.016 1.013.452 1.013h4.924a17.8 17.8 0 0 0 1.11 2.586l-3.488 3.446a.819.819 0 0 0 0 1.173l4.995 4.982a.843.843 0 0 0 1.195-.005l3.663-3.488c.842.452 1.192.82 2.844 1.104v4.927c0 .467.025.97.49.97h7.063c.466 0 .707-.503.707-.97" mask="url(#b)"/>
        <path fill="#F1F2F2" d="M583.704 26.806a6.334 6.334 0 0 1-6.333-6.335 6.334 6.334 0 1 1 12.669 0 6.335 6.335 0 0 1-6.336 6.335" mask="url(#b)"/>
        <path fill="#3896A3" d="M583.704 15.788a4.688 4.688 0 0 0-4.68 4.684 4.686 4.686 0 0 0 4.68 4.683c2.583 0 4.685-2.1 4.685-4.683a4.69 4.69 0 0 0-4.685-4.684m0 12.672c-4.403 0-7.984-3.584-7.984-7.988 0-4.406 3.58-7.99 7.984-7.99 4.405 0 7.988 3.584 7.988 7.99 0 4.404-3.583 7.988-7.988 7.988" mask="url(#b)"/>
        <path fill="#373737" d="M384.098 122.251h18.999v-3.304h-18.999z" mask="url(#b)"/>
        <path fill="#9EA5FF" d="M373.361 122.251h6.607v-3.304h-6.607z" mask="url(#b)"/>
        <path fill="#3896A3" d="M384.098 110.686h24.781v-3.304h-24.781z" mask="url(#b)"/>
        <path fill="#9EA5FF" d="M373.361 110.686h6.607v-3.304h-6.607zM529.477 156.118h54.517v-3.305h-54.517zM518.74 156.118h6.608v-3.305h-6.608zM529.477 144.553h18.999v-3.304h-18.999zM518.74 144.553h6.608v-3.304h-6.608z" mask="url(#b)"/>
        <path fill="#3896A3" d="M607.948 66.081h18.999v-3.303h-18.999z" mask="url(#b)"/>
        <path fill="#777CBF" d="M586.472 66.081h17.346v-3.303h-17.346z" mask="url(#b)"/>
        <path fill="#3896A3" d="M607.948 54.516h18.999v-3.303h-18.999z" mask="url(#b)"/>
        <path fill="#9EA5FF" d="M597.211 54.516h6.607v-3.303h-6.607z" mask="url(#b)"/>
        <path fill="#373737" d="M489.002 73.515h32.215v-3.304h-32.215zM525.348 73.515h6.608v-3.304h-6.608z" mask="url(#b)"/>
        <path fill="#3896A3" d="M502.219 85.08h18.998v-3.304h-18.998zM525.348 85.08h6.608v-3.304h-6.608zM597.211 183.376h18.998v-3.304h-18.998z" mask="url(#b)"/>
        <path fill="#9EA5FF" d="M620.339 183.376h6.608v-3.304h-6.608z" mask="url(#b)"/>
        <path fill="#3896A3" d="M589.776 194.939h26.433v-3.303h-26.433z" mask="url(#b)"/>
        <path fill="#C5C9FF" d="M620.339 194.939h6.608v-3.303h-6.608zM488.125 160.156l-8.728-8.727 2.336-2.336 8.728 8.728z" mask="url(#b)"/>
        <path fill="#C5C9FF" d="M481.732 160.156l-2.336-2.335 8.73-8.728 2.335 2.336z" mask="url(#b)"/>
        <path fill="#777CBF" d="M458.389 67.644l-8.728-8.729 2.336-2.335 8.728 8.73z" mask="url(#b)"/>
        <path fill="#777CBF" d="M451.997 67.644l-2.336-2.335 8.728-8.729 2.337 2.335z" mask="url(#b)"/>
        <path fill="#C5C9FF" d="M525.297 122.16l-8.73-8.727 2.336-2.336 8.729 8.728z" mask="url(#b)"/>
        <path fill="#C5C9FF" d="M518.903 122.16l-2.336-2.335 8.73-8.728 2.335 2.336zM566.597 59.385l-8.729-8.73 2.337-2.336 8.728 8.728z" mask="url(#b)"/>
        <path fill="#C5C9FF" d="M560.205 59.385l-2.336-2.337 8.728-8.729 2.337 2.337zM615.332 158.506l-8.728-8.73 2.335-2.334 8.73 8.729z" mask="url(#b)"/>
        <path fill="#C5C9FF" d="M608.94 158.506l-2.337-2.335 8.73-8.73 2.336 2.336zM413.784 141.159l-8.729-8.729 2.336-2.335 8.73 8.729z" mask="url(#b)"/>
        <path fill="#C5C9FF" d="M407.391 141.159l-2.336-2.335 8.73-8.729 2.335 2.335zM623.592 35.43l-8.728-8.73 2.336-2.335 8.728 8.729z" mask="url(#b)"/>
        <path fill="#C5C9FF" d="M617.2 35.43l-2.336-2.337 8.728-8.729 2.337 2.337z" mask="url(#b)"/>
    </g>
</svg>
