<svg xmlns="http://www.w3.org/2000/svg" width="45" height="45" viewBox="0 0 45 45">
    <g fill="none" fill-rule="evenodd">
        <path stroke="#FFF" stroke-width="2.5" d="M44.389 22.584c0 12.158-9.887 22.016-22.083 22.016C10.11 44.6.223 34.742.223 22.584.223 10.424 10.11.567 22.306.567c12.196 0 22.083 9.857 22.083 22.017z"/>
        <path fill="#FFF" d="M34.944 14.771c-.937.47-1.876.625-2.97.781 1.094-.627 1.875-1.561 2.19-2.811-.938.623-2.033.937-3.282 1.25-.939-.938-2.343-1.563-3.75-1.563-2.658 0-5 2.343-5 5.154 0 .468 0 .781.157 1.095-4.22-.155-8.126-2.189-10.627-5.313-.469.78-.624 1.561-.624 2.657 0 1.72.936 3.281 2.344 4.22-.782 0-1.563-.314-2.344-.628 0 2.503 1.718 4.534 4.061 5.003-.467.155-.936.155-1.404.155-.313 0-.626 0-.939-.155.626 2.029 2.501 3.591 4.845 3.591-1.72 1.409-3.906 2.19-6.408 2.19H9.944c2.344 1.405 5 2.343 7.813 2.343 9.375 0 14.53-7.813 14.53-14.53v-.628c1.095-.782 2.031-1.716 2.657-2.81"/>
    </g>
</svg>
